<svg xmlns="http://www.w3.org/2000/svg" width="59.333" height="91.832" viewBox="0 0 59.333 91.832">
  <g id="Group_4995" data-name="Group 4995" transform="translate(-1133.825 -109)">
    <path id="Path_4521" data-name="Path 4521" d="M1220.492,144.171l2.448-.769,2.168-.49,1.608-1.748,1.35-.164,1.337.164,1.718,2.238v1.259h1.329l2.168.7.7.769.909,2.168,1.469,1.608v.979l-.629.839-4.616.49-2.517-.49-8.812-4.755Z" transform="translate(-47.235 -24.926)" fill="#fff"/>
    <g id="Group_4714" data-name="Group 4714" transform="translate(1133.825 109)">
      <path id="Path_2296" data-name="Path 2296" d="M402.445,303.785H343.123v-91.12c-.02-.337-.039-.672.237-.712h59.086Z" transform="translate(-343.112 -211.953)" fill="none"/>
      <path id="Path_2297" data-name="Path 2297" d="M407.6,216.78c-.089.781-1.262.478-1.187,1.424a9.07,9.07,0,0,1,3.085,2.373c1.324-1.181-.726-2.63-.237-4.509-1.809-.384-2.152.7-3.559.712.035-.589.044-1.152-.475-1.187-.221.57-.953.628-.712,1.661C405.7,218.075,406.552,216.847,407.6,216.78Zm1.185,2.135c-.745.112-.626-.639-1.185-.712.138-.494.5-.767.711-1.187A3.216,3.216,0,0,1,408.786,218.915Z" transform="translate(-372.471 -213.695)" fill="#fff"/>
      <path id="Path_2298" data-name="Path 2298" d="M383.508,224.788c0-.629-.132-1.4.474-1.424a4.293,4.293,0,0,0,1.9,2.61c.261-.855,1.92-1.28,1.424-2.135-.421-.687-1.673-.542-2.136-1.186.971-3.068,6.935-2.292,4.983,1.661a2.412,2.412,0,0,0,2.847,0c.2-1.154-.68-1.219-.475-2.373.361-2.166,4.4-2.16,4.508.237.059,1.088-1.074.983-.95,2.135,0,.471.648.3.475.949,1.932.1,1.848-1.934,1.9-3.085,1.532,1.7-.117,4.369-.237,6.407-.084,1.434.942,3.486-1.186,3.56a9.018,9.018,0,0,0,.237,2.61c2.232-1.215,2.334-2.9,2.135-5.695.758.2.734-.373,1.187-.475-.513-2.651.969-7.3-2.611-6.881-.87-1.9-2.809-2.727-4.982-3.322-.116-.749.428-.838.237-1.661-1.433-.117.077,1.232-.711,1.661-.416-.217-1.184-.082-1.424-.475.365-.361.422-1.627-.475-1.424-.274.771.725,1.46,0,1.9-1.522.6-1.279-1.272-1.661-1.424.194,2.607-3.219,3.458-4.508,1.9.892-.643,5.908-.311,3.322-2.136-.661-.107.186,1.294-.475,1.186a4.294,4.294,0,0,0-4.272-1.186c.917,1.948-.41,2.156.949,3.8-.747-.115-.178,1.088-.712,1.186-.374-.021-.186-.6-.712-.475C381.446,222.085,381.684,224.859,383.508,224.788Zm1.66-4.271a12.172,12.172,0,0,1-1.186,2.373C383.672,222.332,384.556,220.942,385.168,220.517Z" transform="translate(-361.666 -214.11)" fill="#fff"/>
      <path id="Path_2299" data-name="Path 2299" d="M397.271,217.927c0-.629.131-1.4-.474-1.424C396.94,216.992,396.413,218.152,397.271,217.927Z" transform="translate(-368.786 -214.13)" fill="#fff"/>
      <path id="Path_2300" data-name="Path 2300" d="M411.661,220.222a3.215,3.215,0,0,0-.474-1.9c-.213.42-.573.693-.711,1.187C411.035,219.583,410.917,220.334,411.661,220.222Z" transform="translate(-375.346 -215.001)"/>
      <path id="Path_2301" data-name="Path 2301" d="M406.419,225.183c-.861-1.254-2.814.289-2.373,1.9a2.547,2.547,0,0,0,3.085-.949c-.907-.757-2.125.448-2.61,0A1.758,1.758,0,0,1,406.419,225.183Z" transform="translate(-372.238 -218.064)" fill="#fff"/>
      <path id="Path_2302" data-name="Path 2302" d="M390.454,226.359c.145,1.385,2.184,1.348,3.085.712a1.712,1.712,0,0,0-2.61-1.661c-.28.986,1.875-.481,1.9.712C392.022,226.186,390.9,225.938,390.454,226.359Z" transform="translate(-365.766 -218.291)" fill="#fff"/>
      <path id="Path_2303" data-name="Path 2303" d="M362.123,232.393c1.635.37.863-1.668,1.424-2.373.488.383.55,1.19.474,2.136a4.868,4.868,0,0,1-1.424.711c-.065.856.939.644.949,1.424a1.16,1.16,0,0,0-1.186.475,20.393,20.393,0,0,1,2.373,1.661c.618-.737.009-1.765-.237-2.373,1.587-.127.454-1.531.712-2.848.848-1.011.519-3.458-.237-4.271-2.029-.212-4.787.479-5.457,2.373C360.435,230.285,362.7,229.917,362.123,232.393Z" transform="translate(-350.96 -219.104)" fill="#fff"/>
      <path id="Path_2304" data-name="Path 2304" d="M373.677,229.262c.217-1.009-.569-1.013-1.424-.949C372.285,229.073,372.791,229.357,373.677,229.262Z" transform="translate(-357.056 -219.771)" fill="#fff"/>
      <path id="Path_2305" data-name="Path 2305" d="M375.575,234.455c-.02,1.049.041,2.017,1.187,1.9-.2-1.62-1.15-2.488-1.424-4.034.5.148.892,1.217,1.187.237-.8-1.114-3.054-2-4.272-.712C372.785,233.23,374.985,233.882,375.575,234.455Z" transform="translate(-357.056 -221.166)" fill="#fff"/>
      <path id="Path_2306" data-name="Path 2306" d="M381.848,235.751c.748.183,2.064-.876,1.9-2.373-1.386.358-1.463-.594-2.136-.949C380.935,233.464,382.081,234.4,381.848,235.751Z" transform="translate(-361.43 -221.751)" fill="#fff"/>
      <path id="Path_2307" data-name="Path 2307" d="M423.135,232.884c-1.289.689-3.437.518-3.56,2.373C421.291,235,422.715,234.442,423.135,232.884Z" transform="translate(-379.7 -221.969)" fill="#fff"/>
      <path id="Path_2308" data-name="Path 2308" d="M353.221,234.914c.239.474,1.05.375.95,1.186-1.548.9-1.73,3.175-2.847,4.509,1.33.673,3.114-1.2,1.9-2.373,1.175-.335,2.335.209,3.56.475-.395.634-1.638.419-2.135.949a2.7,2.7,0,0,0,1.423,2.61c.407-1.2-1.106-1.2-.474-1.9a1.9,1.9,0,0,1,.949,2.136c-.3,1.329-3.084,1.007-2.135,2.847,3.477-.375,3.823-4.961,3.085-8.78-.374-.417-1.271-.311-1.661-.711.595-.433,1.562-.494,1.9-1.187-1.809-1.8-5.323-1.1-6.17,1.187C352.384,235.817,352.461,235.024,353.221,234.914Z" transform="translate(-347.041 -222.337)" fill="#fff"/>
      <path id="Path_2309" data-name="Path 2309" d="M388.637,235.6c-.748.517-.4,2.13-.475,3.322a5.577,5.577,0,0,0,2.611,1.186c.117-1.24-3.188-1.987-1.424-4.272C389.046,235.829,389.02,235.538,388.637,235.6Z" transform="translate(-364.66 -223.266)" fill="#fff"/>
      <path id="Path_2310" data-name="Path 2310" d="M375.1,239.154c.5-1.579-.962-3.112-2.847-3.085C372.425,237.875,374.147,238.13,375.1,239.154Z" transform="translate(-357.056 -223.492)" fill="#fff"/>
      <path id="Path_2311" data-name="Path 2311" d="M431.047,239.154c-.278-1.7,1.378-1.47,1.661-2.61-.051-.266-.264-.37-.475-.475C431.354,236.581,428.833,238.437,431.047,239.154Z" transform="translate(-384.765 -223.493)" fill="#fff"/>
      <path id="Path_2312" data-name="Path 2312" d="M393.224,238.36a3.623,3.623,0,0,0,2.611-1.186c-1.443.329-2.989-.481-3.559-.237C392.661,237.341,392.667,238.127,393.224,238.36Z" transform="translate(-366.637 -223.886)" fill="#fff"/>
      <path id="Path_2313" data-name="Path 2313" d="M422.68,236.98c-1.536.125-2.215,1.107-3.559,1.423C420.043,239.908,423.17,238.257,422.68,236.98Z" transform="translate(-379.483 -223.929)" fill="#fff"/>
      <path id="Path_2314" data-name="Path 2314" d="M351.1,239.66c-1.42-.419-3.183,1.727-2.61,3.322A4.314,4.314,0,0,0,351.1,239.66Z" transform="translate(-345.633 -225.186)" fill="#fff"/>
      <path id="Path_2315" data-name="Path 2315" d="M384.162,239.254c-.907.12-1.841.215-1.9,1.187.562.624.943,1.43,1.9,1.661.539-.173.709-.714.949-1.186C384.45,240.707,384.324,239.962,384.162,239.254Z" transform="translate(-361.847 -225.017)" fill="#fff"/>
      <path id="Path_2316" data-name="Path 2316" d="M429.385,243.981c-.331-1.991,1.743-1.579,2.373-2.61.038-.75.008-1.433-.475-1.661-.578.452-.429,1.629-1.187,1.9-.838-.457-1.3.077-1.9.475C428.063,243.247,428.506,243.831,429.385,243.981Z" transform="translate(-383.815 -225.234)" fill="#fff"/>
      <path id="Path_2317" data-name="Path 2317" d="M400.6,241.378c-.234-1.433-2.254-1.365-3.321-.712C397.255,242.131,399.963,242.669,400.6,241.378Z" transform="translate(-369.032 -225.479)" fill="#fff"/>
      <path id="Path_2318" data-name="Path 2318" d="M374.842,243.467c.514-1.368-1.3-2.287-2.373-2.847a1.549,1.549,0,0,0-.237,1.186C373.208,242.253,373.827,243.059,374.842,243.467Z" transform="translate(-357.035 -225.67)" fill="#fff"/>
      <path id="Path_2319" data-name="Path 2319" d="M421.376,243.462c.862-.878,2.787-.693,3.084-2.136A2.106,2.106,0,0,0,421.376,243.462Z" transform="translate(-380.552 -225.903)" fill="#fff"/>
      <path id="Path_2320" data-name="Path 2320" d="M394.294,241.528a2.856,2.856,0,0,0,.712,3.322c1.314-1.228,3.572.038,5.457-.475a5.356,5.356,0,0,1,.474-2.847c-1.749.831-2.391,2.241-4.271,1.661C395.668,242.881,395.65,241.464,394.294,241.528Z" transform="translate(-367.47 -226.104)" fill="#fff"/>
      <path id="Path_2321" data-name="Path 2321" d="M418.909,242.472c.067-.621-.087-1.021-.711-.949C418.13,242.143,418.284,242.543,418.909,242.472Z" transform="translate(-379.034 -226.098)" fill="#fff"/>
      <path id="Path_2322" data-name="Path 2322" d="M378.611,242.437c-.093,1.043.292,1.606,1.187,1.661C379.66,243.286,379.627,242.37,378.611,242.437Z" transform="translate(-360.092 -226.538)" fill="#fff"/>
      <path id="Path_2323" data-name="Path 2323" d="M364.518,244.26a17.577,17.577,0,0,0,2.61,3.8C367.67,246.283,366.014,244.775,364.518,244.26Z" transform="translate(-353.355 -227.412)" fill="#fff"/>
      <path id="Path_2324" data-name="Path 2324" d="M418.474,244.717c-.374-.021-.186-.605-.711-.475a7.928,7.928,0,0,0-.238,4.746c1.491-.011,1.424-1.582,1.661-2.847-.786-.214-1.028,1.318-1.423.712C417.737,245.878,418.711,245.9,418.474,244.717Z" transform="translate(-378.599 -227.395)" fill="#fff"/>
      <path id="Path_2325" data-name="Path 2325" d="M370.692,245.158c-.941,2.612,1.459,3.7,2.848,4.746.451-.655.02-2.194.949-2.373a2.563,2.563,0,0,1,1.187,1.424,1.547,1.547,0,0,0-1.187.237c-.139.852.276,1.148.475,1.661,1.859-.638,1.605-3.855.237-4.746C373.156,247,372.748,244.962,370.692,245.158Zm2.611,2.847c-1.043-.143-1.86-.513-2.136-1.424A1.978,1.978,0,0,1,373.3,248.005Z" transform="translate(-356.207 -227.835)" fill="#fff"/>
      <path id="Path_2326" data-name="Path 2326" d="M385.547,245.17c-.791.844-1.855,0-2.373.237.85.968,1.5,2.139,2.373,3.085a9.937,9.937,0,0,0,1.9-2.135C386.739,246.034,385.561,246.183,385.547,245.17Z" transform="translate(-362.282 -227.848)" fill="#fff"/>
      <path id="Path_2327" data-name="Path 2327" d="M439.491,250.362c.735-1.815-2.382-1.693-2.848-3.085.306-.88,1.492-.881,1.424-2.136-.88-.168-1.018.405-1.9.237a9.9,9.9,0,0,0-.237,2.847C437.486,248.57,437.545,250.41,439.491,250.362Z" transform="translate(-387.514 -227.819)" fill="#fff"/>
      <path id="Path_2328" data-name="Path 2328" d="M424.653,245.922c-1.066-.641-1.994.616-1.9,1.9A2.2,2.2,0,0,0,424.653,245.922Z" transform="translate(-381.218 -228.125)" fill="#fff"/>
      <path id="Path_2329" data-name="Path 2329" d="M430,249.421c1.022-1.114,2.361-1.91,2.611-3.8C431.3,246.327,429.651,247.843,430,249.421Z" transform="translate(-384.665 -228.065)" fill="#fff"/>
      <path id="Path_2330" data-name="Path 2330" d="M373.934,249.324A1.978,1.978,0,0,0,371.8,247.9C372.074,248.811,372.891,249.18,373.934,249.324Z" transform="translate(-356.839 -229.154)"/>
      <path id="Path_2331" data-name="Path 2331" d="M441.989,250.668c.052-.868.326-.91,0-1.661-1.011.208-2.105-.726-2.847,0C440.131,249.521,440.766,250.388,441.989,250.668Z" transform="translate(-389.063 -229.549)" fill="#fff"/>
      <path id="Path_2332" data-name="Path 2332" d="M354.543,251.163c.488-.066.474-.634.712-.949-.8-.068-1-.738-1.661-.949C353.571,250.237,353.626,251.13,354.543,251.163Z" transform="translate(-348.126 -229.807)" fill="#fff"/>
      <path id="Path_2333" data-name="Path 2333" d="M366.179,253.3c1.707-1.946,2.318-.217,3.559,1.187.42-.449.173-1.568.237-2.373-1.7-1.064-3.889-1.647-5.458-2.847C364.718,250.964,366.644,250.936,366.179,253.3Z" transform="translate(-353.355 -229.807)" fill="#fff"/>
      <path id="Path_2334" data-name="Path 2334" d="M423.217,251.638c1.488.726.844,3.585,2.61,4.034.109-1.236,1.215-1.475,1.661-2.373-1.063-.337-2.031.64-2.61,0,.3-.723,1.422-.635,1.424-1.661-.568-.144-1.721.3-1.9-.237.166-1.02,1.812-.561,1.424-2.135C424.3,249.4,423.681,250.442,423.217,251.638Z" transform="translate(-381.443 -229.807)" fill="#fff"/>
      <path id="Path_2335" data-name="Path 2335" d="M390,250.168c.653,1.008.989,2.334,2.373,2.61.347-.444.009-1.572.475-1.9.107,1.151,1.365,2.175,2.373,1.661C394.473,250.89,391.713,250.069,390,250.168Z" transform="translate(-365.547 -230.235)" fill="#fff"/>
      <path id="Path_2336" data-name="Path 2336" d="M407.208,252.554c.86-.484,1.124-1.565,1.186-2.847A1.618,1.618,0,0,0,407.208,252.554Z" transform="translate(-373.502 -230.012)" fill="#fff"/>
      <path id="Path_2337" data-name="Path 2337" d="M403.943,252.221a1.771,1.771,0,0,0-1.9-.712,1.852,1.852,0,0,0,0,1.9A1.594,1.594,0,0,0,403.943,252.221Z" transform="translate(-371.187 -230.865)" fill="#fff"/>
      <path id="Path_2338" data-name="Path 2338" d="M432.749,254.842c.153-.726.7-2.3.237-2.847C432.449,252.393,431.716,254.364,432.749,254.842Z" transform="translate(-385.755 -231.113)" fill="#fff"/>
      <path id="Path_2339" data-name="Path 2339" d="M383.174,254.09c.667.549,1.56-.2,1.424-1.186A1.282,1.282,0,0,0,383.174,254.09Z" transform="translate(-362.282 -231.548)" fill="#fff"/>
      <path id="Path_2340" data-name="Path 2340" d="M420.564,252.9a2.39,2.39,0,0,0-1.9,1.661c.816.45.531,2,1.424,2.373a4.436,4.436,0,0,0,1.186-2.136c-.833-.139-.78,1.122-1.424.475C419.754,254.152,420.661,254.031,420.564,252.9Z" transform="translate(-379.265 -231.549)" fill="#fff"/>
      <path id="Path_2341" data-name="Path 2341" d="M414.939,253.807c-.506.873,1.208,1.071.95.237C415.844,253.692,415.314,253.826,414.939,253.807Z" transform="translate(-377.437 -231.976)" fill="#fff"/>
      <path id="Path_2342" data-name="Path 2342" d="M362.537,264c.99-2.411,1.139-4.592,2.373-6.407-.769-.972-1.18-2.3-1.9-3.322-1.455,1.454.695,2.35.711,3.8-1.04.25-.779-.8-1.66-.712-.261,1.369.931,1.284.712,2.611-.689-.181-.616-1.125-1.661-.949-.059,1.562,1.167,1.839,1.424,3.085-1.041.25-.78-.8-1.661-.712A2.388,2.388,0,0,0,362.537,264Z" transform="translate(-351.611 -232.202)" fill="#fff"/>
      <path id="Path_2343" data-name="Path 2343" d="M385.449,256.954c.974.549,2.1-.513,2.372-1.424C386.964,255.1,385.648,255.967,385.449,256.954Z" transform="translate(-363.371 -232.751)" fill="#fff"/>
      <path id="Path_2344" data-name="Path 2344" d="M411.664,255.171c-.072.554-.507,1.023.237,1.186,0-.471.647-.3.475-.949C412.072,255.4,412.047,255.1,411.664,255.171Z" transform="translate(-375.823 -232.628)" fill="#fff"/>
      <path id="Path_2345" data-name="Path 2345" d="M375.933,256.08c-.285,2.175-.09,3.726-.949,4.983.344.447.349,1.233.949,1.424a49.543,49.543,0,0,0,1.186-5.7C376.559,256.718,376.678,255.967,375.933,256.08Z" transform="translate(-358.363 -233.062)" fill="#fff"/>
      <path id="Path_2346" data-name="Path 2346" d="M391.065,259.728c-.041-1.543,1.361-1.645,1.66-2.848C391.437,256.065,388.948,259.3,391.065,259.728Z" transform="translate(-365.664 -233.388)" fill="#fff"/>
      <path id="Path_2347" data-name="Path 2347" d="M435.489,258.443c.319-.347.485-1.879-.238-1.9C434.933,256.892,434.766,258.424,435.489,258.443Z" transform="translate(-387.071 -233.291)" fill="#fff"/>
      <path id="Path_2348" data-name="Path 2348" d="M410.136,259.373c-.3-1.444-1.66-1.82-2.847-2.373C407.4,258.629,408.933,258.836,410.136,259.373Z" transform="translate(-373.821 -233.508)" fill="#fff"/>
      <path id="Path_2349" data-name="Path 2349" d="M415.479,257a1.284,1.284,0,0,0,1.425,1.187C416.844,257.374,416.4,256.951,415.479,257Z" transform="translate(-377.74 -233.505)" fill="#fff"/>
      <path id="Path_2350" data-name="Path 2350" d="M368.012,267.421c1.42-1.339-.169-3.843,1.661-5.22.01-.722-.5-.923-.712-1.424.774.061,1.143-.282,1.187-.949-.034-1.074-1.057-1.159-.95-2.373h-1.186c-.426,1.462,1.294,2.018.949,2.611-.518-.126-1.535-.574-1.661.237.238.642,1.46,1.532,1.186,1.9-.953-.084-1.736,0-1.9.712.549.479,1.268.788,1.424,1.661-.714.645-1.059-.519-2.135-.237C365.725,266.229,368.212,265.482,368.012,267.421Z" transform="translate(-354.002 -233.726)" fill="#fff"/>
      <path id="Path_2351" data-name="Path 2351" d="M396.85,257.45A2.655,2.655,0,0,0,394,260.772C395.237,260.073,396.925,258.68,396.85,257.45Z" transform="translate(-367.416 -233.721)" fill="#fff"/>
      <path id="Path_2352" data-name="Path 2352" d="M401.829,257.442c.378,1.319,2.389,3.416,3.085,2.848A2.862,2.862,0,0,0,401.829,257.442Z" transform="translate(-371.208 -233.713)" fill="#fff"/>
      <path id="Path_2353" data-name="Path 2353" d="M414.454,259.572c.478-.6-.131-1.626-.949-1.662C413.026,258.507,413.637,259.536,414.454,259.572Z" transform="translate(-376.715 -233.944)" fill="#fff"/>
      <path id="Path_2354" data-name="Path 2354" d="M381.8,260.458c1.057.266.853-.729,1.186-1.186Q381.723,259.19,381.8,260.458Z" transform="translate(-361.624 -234.593)" fill="#fff"/>
      <path id="Path_2355" data-name="Path 2355" d="M430.423,261.886c-.674-1.033,1.295-1.149.95-2.61-5.269.918,1.5,6.2.949,1.186C431.17,260.418,431.575,261.931,430.423,261.886Z" transform="translate(-384.379 -234.597)" fill="#fff"/>
      <path id="Path_2356" data-name="Path 2356" d="M422.76,261.155a1.283,1.283,0,0,0,1.186-1.424A1.283,1.283,0,0,0,422.76,261.155Z" transform="translate(-381.224 -234.815)" fill="#fff"/>
      <path id="Path_2357" data-name="Path 2357" d="M385.137,263.3a4.543,4.543,0,0,0,1.661-1.9C385.862,260.623,384.042,262.793,385.137,263.3Z" transform="translate(-363.059 -235.534)" fill="#fff"/>
      <path id="Path_2358" data-name="Path 2358" d="M404.223,263.7c-1.387-.67-1.389-2.724-3.56-2.61.006.558-.408.7-.237,1.424.786.717,2.637.368,2.61,1.9a8.137,8.137,0,0,0-2.373-.712c.358,1.777,2.389,1.883,3.085,3.322C404.8,265.994,402.721,264.844,404.223,263.7Z" transform="translate(-370.518 -235.464)" fill="#fff"/>
      <path id="Path_2359" data-name="Path 2359" d="M417.755,261.077c0,.8,0,1.582.949,1.424C418.709,261.705,418.7,260.919,417.755,261.077Z" transform="translate(-378.829 -235.449)" fill="#fff"/>
      <path id="Path_2360" data-name="Path 2360" d="M409.565,262.006a2.1,2.1,0,0,0,2.135,2.135A2.493,2.493,0,0,0,409.565,262.006Z" transform="translate(-374.91 -235.904)" fill="#fff"/>
      <path id="Path_2361" data-name="Path 2361" d="M396.725,262.736c-1.611-.9-1.663,1.6-3.085,1.661.042.749.166,1.415.949,1.424C394.626,264.118,396.767,264.519,396.725,262.736Z" transform="translate(-367.29 -236.159)" fill="#fff"/>
      <path id="Path_2362" data-name="Path 2362" d="M414.114,262.448a1.282,1.282,0,0,0,1.186,1.424C415.849,263.2,415.1,262.312,414.114,262.448Z" transform="translate(-377.087 -236.109)" fill="#fff"/>
      <path id="Path_2363" data-name="Path 2363" d="M389.487,265.278c.875-.153,1.245-.812,1.424-1.661C389.957,262.895,389.2,264.008,389.487,265.278Z" transform="translate(-365.273 -236.565)" fill="#fff"/>
      <path id="Path_2364" data-name="Path 2364" d="M424.572,263.371a2.948,2.948,0,0,0-.475,2.135C424.934,265.669,425.559,263.5,424.572,263.371Z" transform="translate(-381.85 -236.557)" fill="#fff"/>
      <path id="Path_2365" data-name="Path 2365" d="M381.322,265.25c.713.141,1.346-1,.712-1.424C381.9,264.405,381.116,264.331,381.322,265.25Z" transform="translate(-361.38 -236.775)" fill="#fff"/>
      <path id="Path_2366" data-name="Path 2366" d="M422.078,263.806c-.326.3-.414,1.418.237,1.424C422.508,265.057,422.95,263.587,422.078,263.806Z" transform="translate(-380.778 -236.754)" fill="#fff"/>
      <path id="Path_2367" data-name="Path 2367" d="M408.655,265.631A3.086,3.086,0,0,0,411.028,268C410.7,266.857,409.546,265.449,408.655,265.631Z" transform="translate(-374.475 -237.631)" fill="#fff"/>
      <path id="Path_2368" data-name="Path 2368" d="M427.319,265.191a3.536,3.536,0,0,0-.949,3.085A2.4,2.4,0,0,0,427.319,265.191Z" transform="translate(-382.936 -237.428)" fill="#fff"/>
      <path id="Path_2369" data-name="Path 2369" d="M418.211,265.632c-.018.711.7,1.2,1.186.712C419.506,265.6,418.89,265.585,418.211,265.632Z" transform="translate(-379.047 -237.631)" fill="#fff"/>
      <path id="Path_2370" data-name="Path 2370" d="M384.991,269.134c1.022-.244,1.327-1.2,1.66-2.135C385.248,266.862,384.943,267.821,384.991,269.134Z" transform="translate(-363.149 -238.287)" fill="#fff"/>
      <path id="Path_2371" data-name="Path 2371" d="M414.563,267.009c-.08,1.03.654,1.245,1.425,1.424Q416.044,266.953,414.563,267.009Z" transform="translate(-377.299 -238.297)" fill="#fff"/>
      <path id="Path_2372" data-name="Path 2372" d="M397.14,268.652a13.2,13.2,0,0,0,4.27,3.322c.014-1.861-3.267-2.407-3.8-4.508-1.763.373-2.591,1.68-2.61,3.8C396.112,270.788,396.543,269.637,397.14,268.652Z" transform="translate(-367.943 -238.516)" fill="#fff"/>
      <path id="Path_2373" data-name="Path 2373" d="M430.08,267.466a7.365,7.365,0,0,0-.949,2.847C430.135,270.3,431.272,268.123,430.08,267.466Z" transform="translate(-384.273 -238.516)" fill="#fff"/>
      <path id="Path_2374" data-name="Path 2374" d="M390.248,271.206c.294-.892,1.8-1.573.949-2.847C389.826,268.081,388.758,270.866,390.248,271.206Z" transform="translate(-365.322 -238.934)" fill="#fff"/>
      <path id="Path_2375" data-name="Path 2375" d="M375.555,274.289c-1.055-.617-.943-1.489-.475-2.611-.77-.138-1.1.162-1.66.237.274-.6.945-.794.949-1.661a1.674,1.674,0,0,0-.949-1.424c-.167.7.5,2.236-.712,1.9C372.708,272.709,374.252,274.4,375.555,274.289Z" transform="translate(-357.274 -239.17)" fill="#fff"/>
      <path id="Path_2376" data-name="Path 2376" d="M419.4,269.78a.891.891,0,0,0-.949-.949c-.013.144-.034.281-.237.237C418.193,269.779,418.908,270.272,419.4,269.78Z" transform="translate(-379.047 -239.17)" fill="#fff"/>
      <path id="Path_2377" data-name="Path 2377" d="M382.282,269.286h-.712a1.545,1.545,0,0,0-.237,1.186C382,270.428,382.343,270.06,382.282,269.286Z" transform="translate(-361.389 -239.387)" fill="#fff"/>
      <path id="Path_2378" data-name="Path 2378" d="M423.236,269.286c-.234,1.007.077,2.193-.475,3.322C424.093,272.735,424.52,269.6,423.236,269.286Z" transform="translate(-381.225 -239.387)" fill="#fff"/>
      <path id="Path_2379" data-name="Path 2379" d="M409.109,269.741c.129,1.532.7,2.621,2.136,2.847C411.046,271.127,409.987,270.525,409.109,269.741Z" transform="translate(-374.692 -239.605)" fill="#fff"/>
      <path id="Path_2380" data-name="Path 2380" d="M415.279,273c.509-.741-.336-1.768-1.186-1.9C413.955,272.271,414.4,272.855,415.279,273Z" transform="translate(-377.065 -240.258)" fill="#fff"/>
      <path id="Path_2381" data-name="Path 2381" d="M432.641,271.561c-.3.677-1.61,1.242-.949,2.135A1.35,1.35,0,0,0,432.641,271.561Z" transform="translate(-385.41 -240.476)" fill="#fff"/>
      <path id="Path_2382" data-name="Path 2382" d="M360.877,272.926a3.809,3.809,0,0,0,1.187,2.135C362.6,274.231,361.75,273.1,360.877,272.926Z" transform="translate(-351.613 -241.129)" fill="#fff"/>
      <path id="Path_2383" data-name="Path 2383" d="M382.983,272.926a1.345,1.345,0,0,0-1.186,1.661A1.345,1.345,0,0,0,382.983,272.926Z" transform="translate(-361.617 -241.129)" fill="#fff"/>
      <path id="Path_2384" data-name="Path 2384" d="M386.128,276.723c1.778-.469.057-2.887.712-3.8C385.1,273.115,386.269,275.371,386.128,276.723Z" transform="translate(-363.575 -241.129)" fill="#fff"/>
      <path id="Path_2385" data-name="Path 2385" d="M418.907,273.836H418.2c-.066.541.057.892.475.949C418.745,274.465,419.008,274.332,418.907,273.836Z" transform="translate(-379.032 -241.564)" fill="#fff"/>
      <path id="Path_2386" data-name="Path 2386" d="M434.876,276.684c-.37-1.635.868-1.663.949-2.848C434.8,273.907,433.306,276.264,434.876,276.684Z" transform="translate(-386.696 -241.564)" fill="#fff"/>
      <path id="Path_2387" data-name="Path 2387" d="M390,276.535c1.147-.12,1.974-.558,1.9-1.9C390.93,274.1,390.152,275.5,390,276.535Z" transform="translate(-365.547 -241.89)" fill="#fff"/>
      <path id="Path_2388" data-name="Path 2388" d="M364.557,274.746c-.192,1.3.793,1.423.712,2.611-.743.047-1.31-1.293-1.661-.237.451.577,1.06,1,.949,2.136C366.585,278.454,367.035,275.359,364.557,274.746Z" transform="translate(-352.919 -242)" fill="#fff"/>
      <path id="Path_2389" data-name="Path 2389" d="M397.121,274.746c-.562.7-1.658.873-1.661,2.136C396.522,276.923,398.305,275.4,397.121,274.746Z" transform="translate(-368.16 -242)" fill="#fff"/>
      <path id="Path_2390" data-name="Path 2390" d="M403.254,276.407c0-1.183-1.057-1.317-1.9-1.661C401.175,276.113,402.254,276.221,403.254,276.407Z" transform="translate(-370.972 -242)" fill="#fff"/>
      <path id="Path_2391" data-name="Path 2391" d="M411.007,276.882a2.824,2.824,0,0,0-1.9-2.136A2.36,2.36,0,0,0,411.007,276.882Z" transform="translate(-374.692 -242)" fill="#fff"/>
      <path id="Path_2392" data-name="Path 2392" d="M425.237,277.119c.381-.554,1.7-1.934.712-2.373C425.323,275,424.533,276.322,425.237,277.119Z" transform="translate(-382.277 -242)" fill="#fff"/>
      <path id="Path_2393" data-name="Path 2393" d="M415.5,277c-.422-.211-.6-.663-1.424-.475C413.769,277.532,415.4,277.806,415.5,277Z" transform="translate(-377.051 -242.83)" fill="#fff"/>
      <path id="Path_2394" data-name="Path 2394" d="M420.667,281.055c.064-1.03.934-3.564,0-4.034C420.349,278.547,419.052,280.1,420.667,281.055Z" transform="translate(-379.843 -243.089)" fill="#fff"/>
      <path id="Path_2395" data-name="Path 2395" d="M428.754,277.251c-.053-.185-.2-.276-.475-.238a7.979,7.979,0,0,0-1.424,2.611C428.16,279.5,428.5,278.42,428.754,277.251Z" transform="translate(-383.184 -243.08)" fill="#fff"/>
      <path id="Path_2396" data-name="Path 2396" d="M418.467,278.426c.013-.145.035-.281.237-.237v-.475c-.144-.014-.281-.035-.237-.237h-.475c-.013.144-.035.281-.238.237v.475c.145.014.282.035.238.237Z" transform="translate(-378.829 -243.307)" fill="#fff"/>
      <path id="Path_2397" data-name="Path 2397" d="M372.787,280.3c-.221-1.2-.561-2.287-1.9-2.373C371.142,279.1,371.482,280.185,372.787,280.3Z" transform="translate(-356.403 -243.524)" fill="#fff"/>
      <path id="Path_2398" data-name="Path 2398" d="M383.656,277.93a1.332,1.332,0,0,0-.949.237C382.549,279.2,383.9,278.9,383.656,277.93Z" transform="translate(-362.052 -243.522)" fill="#fff"/>
      <path id="Path_2399" data-name="Path 2399" d="M379.813,278.387c-.451.447-.029,1.233.475,1.424C380.968,279.294,380.613,278.614,379.813,278.387Z" transform="translate(-360.582 -243.742)" fill="#fff"/>
      <path id="Path_2400" data-name="Path 2400" d="M397.182,281a7.09,7.09,0,0,0,2.135-2.61C398.014,278.562,396.686,279.793,397.182,281Z" transform="translate(-368.934 -243.742)" fill="#fff"/>
      <path id="Path_2401" data-name="Path 2401" d="M392.134,278.842A2.5,2.5,0,0,0,390,280.978,3.964,3.964,0,0,0,392.134,278.842Z" transform="translate(-365.547 -243.96)" fill="#fff"/>
      <path id="Path_2402" data-name="Path 2402" d="M405.924,278.807c-.038,1.15.969.506,1.424.237a2.491,2.491,0,0,0,1.424,2.373C408.712,279.657,408,278.547,405.924,278.807Z" transform="translate(-373.168 -243.925)" fill="#fff"/>
      <path id="Path_2403" data-name="Path 2403" d="M402.285,279.28c.211.737.244,1.654,1.186,1.661C404.138,280.1,403.369,279.111,402.285,279.28Z" transform="translate(-371.427 -244.16)" fill="#fff"/>
      <path id="Path_2404" data-name="Path 2404" d="M431.445,279.288a8.333,8.333,0,0,0-.949,2.373c1.091-.175,1.227-1.305,1.661-2.135C431.854,279.511,431.829,279.22,431.445,279.288Z" transform="translate(-384.926 -244.168)" fill="#fff"/>
      <path id="Path_2405" data-name="Path 2405" d="M413.2,279.989c-.017.711.7,1.2,1.186.712a.89.89,0,0,0-.949-.949C413.429,279.9,413.407,280.033,413.2,279.989Z" transform="translate(-376.652 -244.395)" fill="#fff"/>
      <path id="Path_2406" data-name="Path 2406" d="M423.669,280.142c-.98-.408-1.272,1.075-.711,1.424C422.829,280.725,423.8,280.982,423.669,280.142Z" transform="translate(-381.183 -244.548)" fill="#fff"/>
      <path id="Path_2407" data-name="Path 2407" d="M375.692,282.556a1.77,1.77,0,0,0,.711-1.9C375.581,280.56,375.2,282.122,375.692,282.556Z" transform="translate(-358.597 -244.827)" fill="#fff"/>
      <path id="Path_2408" data-name="Path 2408" d="M372.351,283.824c-1.534.262-1.191-2.6-2.373-1.9C370.236,282.834,371.313,285.255,372.351,283.824Z" transform="translate(-355.968 -245.382)" fill="#fff"/>
      <path id="Path_2409" data-name="Path 2409" d="M384.117,281.572c-.668.044-1.012.413-.95,1.186C383.835,282.714,384.179,282.345,384.117,281.572Z" transform="translate(-362.275 -245.266)" fill="#fff"/>
      <path id="Path_2410" data-name="Path 2410" d="M392.761,282.027c-.717.628-1.63,1.059-1.423,2.61C392.308,284.423,393.776,282.707,392.761,282.027Z" transform="translate(-366.174 -245.484)" fill="#fff"/>
      <path id="Path_2411" data-name="Path 2411" d="M371.935,304.313c.572-3.521,3.976-7.69,4.271-10.916.209-2.282-1.406-9.573-2.373-10.915-.165,1.694-2.418,1.985-2.847,4.034-.377,1.8.482,4.344.237,6.644-.306,2.867-1.374,5.315-.712,7.593.179.612,1.756-.174,1.661.712-.437.829-1.484,1.048-2.848.949-.3.65-.234,1.665-.712,2.136C369.378,305.759,370.875,304.773,371.935,304.313Zm2.373-13.051c.645.924-.066,4.49-.712,5.695C373.051,295.222,374.471,293.4,374.308,291.262Z" transform="translate(-355.314 -245.702)" fill="#fff"/>
      <path id="Path_2412" data-name="Path 2412" d="M387.289,282.462q-1.115-.166-.949.949C387.083,283.522,387.009,282.815,387.289,282.462Z" transform="translate(-363.786 -245.682)" fill="#fff"/>
      <path id="Path_2413" data-name="Path 2413" d="M405.236,284.107q1.114.165.949-.949A.674.674,0,1,0,405.236,284.107Z" transform="translate(-372.716 -245.903)" fill="#fff"/>
      <path id="Path_2414" data-name="Path 2414" d="M396.866,286.22c-.386-1.32,1.891-1.746.712-2.373C396.815,284.073,394.7,285.962,396.866,286.22Z" transform="translate(-368.381 -246.355)" fill="#fff"/>
      <path id="Path_2415" data-name="Path 2415" d="M400.5,284.073c.525.029.1,1.007.237,1.424a1.133,1.133,0,0,0-1.186,1.186c.969.61,1.024-1.418,2.372-1.186C402.27,284.352,401.255,283.338,400.5,284.073Z" transform="translate(-370.12 -246.344)" fill="#fff"/>
      <path id="Path_2416" data-name="Path 2416" d="M425.014,285.033c.872.228.944-1.165.237-1.186A1.544,1.544,0,0,0,425.014,285.033Z" transform="translate(-382.292 -246.355)" fill="#fff"/>
      <path id="Path_2417" data-name="Path 2417" d="M418.4,284.757c-1.087,9.956.955,16.7,5.458,21.119.7-.1.19-1.392.712-1.661.819.21.211,1.846,1.424,1.661.388-1.619-1.6-2.8-2.847-3.559C420.806,296.778,424.436,287.091,418.4,284.757Z" transform="translate(-379.002 -246.79)" fill="#fff"/>
      <path id="Path_2418" data-name="Path 2418" d="M411.64,305.362a30.516,30.516,0,0,0-1.9-3.322c-.218-4.239-1.945-8.424.475-11.627-.155,1.742-1.057,4.456-.237,5.695,1.109-2.371,1.247-5.715,1.187-9.254-1-.05-.362,1.536-.95,1.9a7.433,7.433,0,0,0-.711-3.085c-2.79.1-3.247,2.541-3.085,4.983-.678-.666-.351-2.338-1.423-2.61-.636,1.616-.963,5.679.712,6.407a19.841,19.841,0,0,1,.949-2.848c.53,3.774-1.514,6.235-.712,9.492.379-.175-.054-1.161.712-.949a8.893,8.893,0,0,1-.475,5.221,6.879,6.879,0,0,1,2.61.237,5.116,5.116,0,0,0,.238-2.136c-.735-.237-.922,1.263-1.423.475.83-3.3-1.723-5.418-.475-7.593C407.84,300,408.935,304.5,411.64,305.362Z" transform="translate(-372.477 -247.226)" fill="#fff"/>
      <path id="Path_2419" data-name="Path 2419" d="M427.99,285.646a2.017,2.017,0,0,0-.237,1.424q1.267.081,1.186-1.186C428.619,285.809,428.487,285.546,427.99,285.646Z" transform="translate(-383.607 -247.205)" fill="#fff"/>
      <path id="Path_2420" data-name="Path 2420" d="M383.146,291.521c.3-1.061.589-3.6-.475-4.034C382.9,288.766,382.169,290.995,383.146,291.521Z" transform="translate(-362.017 -248.097)" fill="#fff"/>
      <path id="Path_2421" data-name="Path 2421" d="M371.382,295.219c-.087-2.049.39-4.661-.949-5.457C370.532,291.8,370.146,294.32,371.382,295.219Z" transform="translate(-356.185 -249.185)" fill="#fff"/>
      <path id="Path_2422" data-name="Path 2422" d="M427.834,304.673c-.192-4.265.627-10.112-.711-14C427.317,295.3,425.016,301.694,427.834,304.673Z" transform="translate(-382.976 -249.621)" fill="#fff"/>
      <path id="Path_2423" data-name="Path 2423" d="M397.864,309.3a5.242,5.242,0,0,0,3.322,0,47.568,47.568,0,0,0-1.424-16.136,5.951,5.951,0,0,0-2.373-.237C397.8,298.937,396.023,304.539,397.864,309.3Z" transform="translate(-368.904 -250.693)" fill="#fff"/>
      <path id="Path_2424" data-name="Path 2424" d="M378.766,299.318c.163,2.142-1.257,3.96-.712,5.695C378.7,303.808,379.41,300.242,378.766,299.318Z" transform="translate(-359.772 -253.758)"/>
      <path id="Path_2425" data-name="Path 2425" d="M383.233,303.867c-.589,2.259-.414,5.281-1.424,7.119.6.424,1.58-.353,2.135-.712C383.69,308.155,384.075,305.4,383.233,303.867Z" transform="translate(-361.629 -255.935)" fill="#fff"/>
      <path id="Path_2426" data-name="Path 2426" d="M416.188,308.418c-.269,1.676-.574,4.425.95,4.983C417.538,311.921,417.728,308.734,416.188,308.418Z" transform="translate(-377.974 -258.112)" fill="#fff"/>
      <path id="Path_2427" data-name="Path 2427" d="M383.233,322.206c.348-1.734-.336-1.706,0-3.322-1.157.109-.859,1.672-1.424,2.373C383.173,320.608,382.377,321.879,383.233,322.206Z" transform="translate(-361.629 -263.12)" fill="#fff"/>
      <path id="Path_2428" data-name="Path 2428" d="M418.211,319.339c.2.746.44,1.458,1.186,1.66C419.352,320.1,419.06,319.438,418.211,319.339Z" transform="translate(-379.047 -263.338)" fill="#fff"/>
      <path id="Path_2429" data-name="Path 2429" d="M434.195,321.474a1.046,1.046,0,0,1,.475-.95c.484.465.5,1.4,1.424,1.424-.248-2.212-1.668-2.147-3.322-2.61C432.93,320.367,433.193,321.29,434.195,321.474Z" transform="translate(-386.014 -263.338)" fill="#fff"/>
      <path id="Path_2430" data-name="Path 2430" d="M367.257,320.248c-.483.229-.513.912-.475,1.661C367.539,322.115,368.276,320.3,367.257,320.248Z" transform="translate(-354.433 -263.773)" fill="#fff"/>
      <path id="Path_2431" data-name="Path 2431" d="M379.059,321.49a1.674,1.674,0,0,0,1.424-.949A.913.913,0,0,0,379.059,321.49Z" transform="translate(-360.302 -263.828)" fill="#fff"/>
      <path id="Path_2432" data-name="Path 2432" d="M423.471,322.068c-.1.528-.546,1.288.237,1.424C423.811,322.964,424.254,322.205,423.471,322.068Z" transform="translate(-381.46 -264.644)" fill="#fff"/>
      <path id="Path_2433" data-name="Path 2433" d="M366.126,325.519c.046-.68.03-1.295-.712-1.186C365.367,325.012,365.385,325.627,366.126,325.519Z" transform="translate(-353.776 -265.721)" fill="#fff"/>
      <path id="Path_2434" data-name="Path 2434" d="M418.269,330.228c-.417.137-1.394-.287-1.423.237.829.516,1.093,1.6,1.423,2.611.629,0,1.4-.132,1.425.474-.56,1.8.615,2.519,0,4.034.461,1.12,2.01,1.153,2.372,2.373.26.87-.955,2.336,0,2.373a41.55,41.55,0,0,0,2.61-9.254c-1.488-.223-1.8.726-2.847.949-.419,1.156.458,2.3-.475,3.085-1.5-1.666.136-3.642,1.424-4.508-.549-.559-.649-1.565-1.424-1.9a3.433,3.433,0,0,1-2.611,1.186A8.786,8.786,0,0,0,418.269,330.228Zm1.661,1.661a2.016,2.016,0,0,1,1.424-.237c.895,1.363-.264,2.09-1.424,1.187Z" transform="translate(-378.394 -268.533)" fill="#fff"/>
      <path id="Path_2435" data-name="Path 2435" d="M364.973,331.571c1.8.988.97,5.807,4.034,4.746C367.641,334.9,367.552,331,364.973,331.571Z" transform="translate(-353.573 -269.164)"/>
      <path id="Path_2436" data-name="Path 2436" d="M424.185,332.976a2.016,2.016,0,0,0-1.424.237v.95C423.921,335.065,425.08,334.338,424.185,332.976Z" transform="translate(-381.225 -269.856)"/>
      <path id="Path_2437" data-name="Path 2437" d="M357.72,340.326c.284-1.891.577-5.35-.237-6.882C357.382,335.739,356.911,338.426,357.72,340.326Z" transform="translate(-349.88 -270.087)" fill="#fff"/>
      <path id="Path_2438" data-name="Path 2438" d="M444.588,334.354c-.762,1.585-.521,4.715-.237,6.644C445.637,340.115,445.194,335.628,444.588,334.354Z" transform="translate(-391.425 -270.523)" fill="#fff"/>
      <path id="Path_2439" data-name="Path 2439" d="M359.532,334.81c-.432,1.892-.9,5.147.237,6.644C360.411,339.887,360.641,336.04,359.532,334.81Z" transform="translate(-350.742 -270.741)" fill="#fff"/>
      <path id="Path_2440" data-name="Path 2440" d="M441.365,335.265c-.61,1.59-.94,5.656.237,6.881C442.128,340.234,442.452,336.822,441.365,335.265Z" transform="translate(-389.863 -270.959)" fill="#fff"/>
      <path id="Path_2441" data-name="Path 2441" d="M417.669,342.048c.534-.415,1.334-.564,1.9-.949.272-1.459-.826-1.548-.475-3.085a5.35,5.35,0,0,1-1.424-.475C418.406,339,417.252,341,417.669,342.048Z" transform="translate(-378.743 -272.047)" fill="#fff"/>
      <path id="Path_2442" data-name="Path 2442" d="M401.352,339.793a1.546,1.546,0,0,0,.237,1.186.891.891,0,0,0,.949-.949A1.544,1.544,0,0,0,401.352,339.793Z" transform="translate(-370.969 -273.114)"/>
      <path id="Path_2443" data-name="Path 2443" d="M382.719,342.386a3.985,3.985,0,0,0,2.373,1.186c-.352-.756,0-2.213-.475-2.847C384.163,341.457,383.016,341.5,382.719,342.386Z" transform="translate(-362.064 -273.571)" fill="#fff"/>
      <path id="Path_2444" data-name="Path 2444" d="M431.445,340.929c-.459.886-.317,2.372-.949,3.085,1.784.439,1.742-.948,2.848-1.186.169,1.865-2.437,3.367-1.424,4.508.741-2.025,2.946-3.318,2.372-5.932C433.516,341.132,432.469,340.2,431.445,340.929Z" transform="translate(-384.926 -273.538)" fill="#fff"/>
      <path id="Path_2445" data-name="Path 2445" d="M362.675,344.82c-.588.943-2.869,2.359-1.661,3.559C360.612,346.392,363.335,346.276,362.675,344.82Z" transform="translate(-351.512 -275.531)" fill="#fff"/>
      <path id="Path_2446" data-name="Path 2446" d="M422.6,348c-.127,1.454-.985,2.179-1.661,3.085C422.688,351.52,423.462,348.619,422.6,348Z" transform="translate(-380.353 -277.055)" fill="#fff"/>
      <path id="Path_2447" data-name="Path 2447" d="M436.411,349.37c.114.85.386,1.372,0,2.136C437.466,351.514,437.2,349.507,436.411,349.37Z" transform="translate(-387.756 -277.708)" fill="#fff"/>
      <path id="Path_2448" data-name="Path 2448" d="M371.624,361.223v-.949A.507.507,0,1,0,371.624,361.223Z" transform="translate(-356.427 -282.917)" fill="#fff"/>
      <path id="Path_2449" data-name="Path 2449" d="M373.42,360.29h-.474c-.014.145-.036.282-.238.237V361c.145.014.282.036.238.237h.474c.013-.144.035-.281.237-.237v-.475C373.513,360.514,373.377,360.492,373.42,360.29Z" transform="translate(-357.274 -282.933)" fill="#fff"/>
      <path id="Path_2450" data-name="Path 2450" d="M374.984,360.273v.949A.507.507,0,1,0,374.984,360.273Z" transform="translate(-358.363 -282.917)" fill="#fff"/>
      <path id="Path_2451" data-name="Path 2451" d="M376.8,360.29v.949c.625.072.779-.328.711-.949Z" transform="translate(-359.234 -282.933)" fill="#fff"/>
      <path id="Path_2452" data-name="Path 2452" d="M379.31,361.239v-.949H378.6C378.532,360.91,378.518,361.477,379.31,361.239Z" transform="translate(-360.079 -282.933)" fill="#fff"/>
      <path id="Path_2453" data-name="Path 2453" d="M380.66,360.249c-.074.321-.338.454-.237.949h.712C381.081,360.777,381.374,360.01,380.66,360.249Z" transform="translate(-360.955 -282.892)" fill="#fff"/>
      <path id="Path_2454" data-name="Path 2454" d="M382.962,361.239v-.949h-.712C382.183,360.911,382.337,361.311,382.962,361.239Z" transform="translate(-361.833 -282.933)" fill="#fff"/>
      <path id="Path_2455" data-name="Path 2455" d="M384.82,361.223v-.949A.507.507,0,1,0,384.82,361.223Z" transform="translate(-362.742 -282.917)" fill="#fff"/>
      <path id="Path_2456" data-name="Path 2456" d="M386.2,360.273c-.4.471.021.3,0,.949A.507.507,0,1,0,386.2,360.273Z" transform="translate(-363.649 -282.917)" fill="#fff"/>
      <path id="Path_2457" data-name="Path 2457" d="M388.179,360.29v.949c.625.072.779-.328.712-.949Z" transform="translate(-364.677 -282.933)" fill="#fff"/>
      <path id="Path_2458" data-name="Path 2458" d="M389.983,360.29c-.065.541.058.892.476.949.074-.321.337-.453.237-.949Z" transform="translate(-365.532 -282.933)" fill="#fff"/>
      <path id="Path_2459" data-name="Path 2459" d="M392.518,361.239v-.949h-.712C391.739,360.911,391.893,361.311,392.518,361.239Z" transform="translate(-366.406 -282.933)" fill="#fff"/>
      <path id="Path_2460" data-name="Path 2460" d="M394.351,360.29h-.475c-.013.145-.035.282-.237.237V361c.144.014.281.036.237.237h.475c.014-.144.036-.281.237-.237v-.475C394.444,360.514,394.307,360.492,394.351,360.29Z" transform="translate(-367.29 -282.933)" fill="#fff"/>
      <path id="Path_2461" data-name="Path 2461" d="M395.915,360.29v.949c.625.072.779-.328.712-.949Z" transform="translate(-368.379 -282.933)" fill="#fff"/>
      <path id="Path_2462" data-name="Path 2462" d="M397.735,360.29v.949c.625.072.779-.328.712-.949Z" transform="translate(-369.25 -282.933)" fill="#fff"/>
      <path id="Path_2463" data-name="Path 2463" d="M400.24,361.239v-.949h-.711C399.462,360.91,399.449,361.477,400.24,361.239Z" transform="translate(-370.094 -282.933)" fill="#fff"/>
      <path id="Path_2464" data-name="Path 2464" d="M402.073,361.239v-.949h-.712C401.294,360.911,401.448,361.311,402.073,361.239Z" transform="translate(-370.978 -282.933)" fill="#fff"/>
      <path id="Path_2465" data-name="Path 2465" d="M403.907,360.29h-.475c-.013.145-.035.282-.237.237V361c.144.014.281.036.237.237h.475c.014-.144.035-.281.237-.237v-.475C404,360.514,403.863,360.492,403.907,360.29Z" transform="translate(-371.862 -282.933)" fill="#fff"/>
      <path id="Path_2466" data-name="Path 2466" d="M406.156,361.239v-.949h-.712C405.378,360.91,405.364,361.477,406.156,361.239Z" transform="translate(-372.925 -282.933)" fill="#fff"/>
      <path id="Path_2467" data-name="Path 2467" d="M407.988,361.239v-.949h-.712C407.209,360.911,407.362,361.311,407.988,361.239Z" transform="translate(-373.808 -282.933)" fill="#fff"/>
      <path id="Path_2468" data-name="Path 2468" d="M409.809,361.239v-.949H409.1C409.029,360.911,409.183,361.311,409.809,361.239Z" transform="translate(-374.679 -282.933)" fill="#fff"/>
      <path id="Path_2469" data-name="Path 2469" d="M411.666,361.223v-.949A.507.507,0,1,0,411.666,361.223Z" transform="translate(-375.588 -282.917)" fill="#fff"/>
      <path id="Path_2470" data-name="Path 2470" d="M413.486,361.223v-.949A.507.507,0,1,0,413.486,361.223Z" transform="translate(-376.459 -282.917)" fill="#fff"/>
      <path id="Path_2471" data-name="Path 2471" d="M415.307,361.223v-.949A.507.507,0,1,0,415.307,361.223Z" transform="translate(-377.33 -282.917)" fill="#fff"/>
      <path id="Path_2472" data-name="Path 2472" d="M416.846,360.273v.949A.507.507,0,1,0,416.846,360.273Z" transform="translate(-378.394 -282.917)" fill="#fff"/>
      <path id="Path_2473" data-name="Path 2473" d="M418.665,360.29v.949c.625.072.779-.328.712-.949Z" transform="translate(-379.265 -282.933)" fill="#fff"/>
      <path id="Path_2474" data-name="Path 2474" d="M420.485,360.29v.949c.626.072.779-.328.712-.949Z" transform="translate(-380.136 -282.933)" fill="#fff"/>
      <path id="Path_2475" data-name="Path 2475" d="M422.307,360.29v.949c.625.072.779-.328.711-.949Z" transform="translate(-381.007 -282.933)" fill="#fff"/>
      <path id="Path_2476" data-name="Path 2476" d="M424.126,360.29v.949c.625.072.779-.328.712-.949Z" transform="translate(-381.878 -282.933)" fill="#fff"/>
      <path id="Path_2477" data-name="Path 2477" d="M426.631,361.239v-.949h-.711C425.854,360.91,425.84,361.477,426.631,361.239Z" transform="translate(-382.723 -282.933)" fill="#fff"/>
      <path id="Path_2478" data-name="Path 2478" d="M428.452,361.239v-.949h-.711C427.675,360.91,427.66,361.477,428.452,361.239Z" transform="translate(-383.594 -282.933)" fill="#fff"/>
      <path id="Path_2479" data-name="Path 2479" d="M430.272,361.239v-.949h-.712C429.495,360.91,429.481,361.477,430.272,361.239Z" transform="translate(-384.465 -282.933)" fill="#fff"/>
      <path id="Path_2480" data-name="Path 2480" d="M377.41,368.026c-.674.6,1.284,1.439.712,1.9H361.749c-.335,1.047,1.419,0,1.424.712V372.3c-.5.647-.892-.84-1.186.237.824.6,1.137,1.711,2.135,2.136.674-.6-1.284-1.44-.711-1.9.394-.4,1.393-.189,2.136-.237.2.6-.462,2.043.475,1.9V370.4c1.821.156,4.269-.313,5.7.237.013.3.3.329.237.712.021.811-1.445.137-1.424.949.718.647,1.722,1.664,3.085.949.105.449-.323,1.43.475,1.186.118-1.3-.261-3.109.237-4.034.722.149,2.044-.3,2.373.237v1.187a5.319,5.319,0,0,0-1.424.475c-.105,1.054.132,1.766,1.186,1.66.759-.032.524-1.059.95-1.424H378.6c.074.718-.263,1.846.475,1.9.5-.925.119-2.728.237-4.034h3.56c.733,1.828-1.193,3.754-1.9,1.9-.2-.907,1.144-.28.949-1.187-2.846-.107-1.375,3.78.949,2.373.054.421-.239,1.189.475.949.07-1.748-.437-4.074.949-4.508h-5.221A4.3,4.3,0,0,0,377.41,368.026Zm-11.865,3.8h-1.661V370.4c.63,0,1.355-.09,1.661.237Zm8.068.711a2.264,2.264,0,0,1-2.135,0c.638-.493,1.509-1.12.949-2.135h1.186Zm2.136,0h.949C376.911,373.639,375.44,373.751,375.749,372.534Zm2.847-.711h-1.423V370.4H378.6Z" transform="translate(-352.01 -286.635)"/>
      <path id="Path_2481" data-name="Path 2481" d="M423.487,368.026c-.918.844,1.312,1.412.712,1.9-4.118.312-9.485-.626-12.814.475,1.269.154,3.159-.312,4.034.237v.95h-2.374c.178.548,1.68.992.712,1.9-1.495.387-1.054-1.16-2.135-1.186a1.864,1.864,0,0,0,2.611,1.66c.631-.668.008-1.356.474-1.9,1.315-.287.477,1.58.712,2.372,1.053-.449.2-2.808.474-4.034.884.145,2.506-.448,2.373.712.109.741-.507.759-1.186.712a1.892,1.892,0,0,0,2.847,1.423c-.047.679-.03,1.3.711,1.186V370.4c1.269.154,3.159-.312,4.034.237v.95c-3.249-.964-3.876,2.356-1.661,3.085.6-.827-1.219-.885-.712-2.373.588-.207,1.84-.464,2.373,0v2.135c1.053-.449.2-2.808.474-4.034.421-.054,1.189.239.95-.475C424.455,370.063,424.422,368.594,423.487,368.026Zm-3.559,4.508a1.853,1.853,0,0,1-1.9,0c.471-.254,1.5-1.173.712-1.9-.04-.515.842-.107,1.187-.237Z" transform="translate(-375.781 -286.635)"/>
      <path id="Path_2485" data-name="Path 2485" d="M373.32,377.8c.595-.827-1.22-.885-.712-2.373a6.857,6.857,0,0,1,2.61-.237C372.9,373.068,370.406,377.046,373.32,377.8Z" transform="translate(-356.936 -289.769)"/>
      <path id="Path_2487" data-name="Path 2487" d="M359.082,330.008a2.132,2.132,0,0,1-.48.368C358.758,330.388,358.919,330.248,359.082,330.008Z" transform="translate(-350.524 -268.443)"/>
      <path id="Path_2488" data-name="Path 2488" d="M349.857,233.546c.379,1.915,1.849,2.739,3.322,3.559.723-.226.545-1.352,1.661-1.186.163,2.808-1.9,5.371-1.661,8.543.251,3.4,2.52,5.481,4.271,7.593.762.146.325-.854.949-.237-.3,6.046,2.9,12.66-.237,17.322-.306.326-1.031.235-1.661.237.006,1.509-.249,2.757-1.661,2.847-.072-.874,1.464-1.368.712-2.136-.729,1.136-1.457,3.861-2.131,4.853.556-.517,1.218-1.237,1.656-.343-2.268-.141-4.152,3.93-4.034,6.169.036.675.735,1.246.95,1.9.926,2.809,1.237,6.972,5.457,5.932.809.937.284,1.88.949,3.085,9.815.371,23.112.412,33.7,0a2.38,2.38,0,0,0,0-3.085c.978.59,1.669-.285,3.56,0,1.133-1.026,2.51-2.368,1.424-1.424-.308.268-1.858,2-2.848.949,4.347-1.984,3.871-3.519,5.932-8.068-1.74-1.978-1.063-6.372-4.034-7.119.18-4.028-3.844-2.916-5.22-4.983a10.211,10.211,0,0,1-.949-3.559c-1.1-9.483,4.282-15.088,5.7-21.593-1.1.011-.863,1.352-2.136,1.186-1.636-.726-.842-3.36.949-3.322-.041,1.145-1.145,1.228-1.186,2.373.932-.406,1.891-.69,2.136-1.186.117-2.808-2.094-4.547-1.9-6.644,1.351.074,1.334,1.514,2.373,1.9,1.935-2.726,9.1-6.427,4.034-9.729.172,1.233,2.257,1.615,1.424,3.085a3.43,3.43,0,0,1-2.373-1.9c.324-.942,1.1-1.428.949-2.848-.575-.932-2.247-2.018-3.559-1.424,1.23.193,2.624.224,2.847,1.424a2.955,2.955,0,0,0-1.9,1.424c.416.066,1.184-.668,1.424,0,.028.978-1.856.043-2.135.712,1.447,1,2.456,2.448,4.034,3.322-2.9-.088-4.058-2.234-7.119-.949.058-.971-.231-2.288.475-2.611.612-.788,1.96.569,2.135-.475-.635-.551-2.252-.119-2.61-.949-.047-1.708,2.063-1.259,2.373-2.61a4.079,4.079,0,0,0-3.085-3.085c.487,1.7,1.82,1.083,2.135,2.847a30.96,30.96,0,0,0-5.932,4.508c-1.057-1.31,1.164-2.4.475-3.322-.855.357-.636-.6-1.424-.712-1.152-.158-2.238,1.265-3.559,1.186.558-1.577,2.045-2.226,4.27-2.135.26-1.719,1.936-2.019,3.56-2.373-3.206-.879-3.745,2.66-7.357,2.135-1.642-1.758-2.185-4.618-2.848-7.356-5-.155-12.607-.915-16.847.475.669,3.618-1.577,5.969-1.424,7.593-1.181-1.379-2.034-1.456-4.034-2.135-.864-.294-1.418-.9-1.9-.949-3.461-.332-4.073,2.091-5.932,3.8-1.076.988-2.484,1.295-3.085,2.136-1.057,1.478-1.362,3.472-2.135,4.272A5.694,5.694,0,0,0,349.857,233.546Zm2.847,50.069c-.809-1.9-.338-4.588-.237-6.882C353.281,278.265,352.988,281.724,352.7,283.615Zm45.323-6.408c.605,1.274,1.049,5.761-.237,6.644C397.505,281.923,397.265,278.793,398.027,277.208Zm-1.661.475c1.086,1.557.762,4.969.237,6.881C395.426,283.339,395.756,279.272,396.366,277.683Zm-45.086-42.95c-.916-.033-.972-.926-.949-1.9.66.211.859.881,1.661.949C351.754,234.1,351.768,234.666,351.28,234.733Zm4.509,8.543c-.258-1.245-1.483-1.522-1.424-3.085,1.046-.176.973.768,1.661.949.219-1.326-.973-1.242-.712-2.611.881-.09.62.962,1.66.712-.017-1.447-2.166-2.343-.711-3.8.719,1.022,1.13,2.35,1.9,3.322-1.233,1.814-1.382,4-2.373,6.407a2.388,2.388,0,0,1-1.661-2.61C355.01,242.473,354.748,243.525,355.789,243.275Zm5.7-7.593c-.065.806.183,1.924-.237,2.373-1.242-1.4-1.852-3.133-3.559-1.187.465-2.363-1.462-2.335-1.661-4.034C357.6,234.034,359.78,234.617,361.484,235.682Zm-5.458-5.457c1.5.515,3.152,2.023,2.61,3.8A17.577,17.577,0,0,1,356.026,230.224Zm4.271,14.712c1.208.338.545-1.195.712-1.9a1.674,1.674,0,0,1,.949,1.424c0,.867-.675,1.066-.949,1.661.557-.076.89-.375,1.66-.237-.469,1.121-.581,1.994.475,2.611C361.841,248.61,360.3,246.916,360.3,244.936Zm1.661,6.17c-.495-.434-.111-2,.711-1.9A1.77,1.77,0,0,1,361.959,251.106Zm-.712-.949c-1.3-.119-1.645-1.2-1.9-2.373C360.686,247.87,361.026,248.954,361.247,250.157Zm1.186-7.356c-.6-.19-.605-.977-.949-1.424.859-1.258.664-2.809.949-4.983.745-.112.626.639,1.186.712A49.557,49.557,0,0,1,362.434,242.8Zm-7.119,4.508a3.809,3.809,0,0,1-1.187-2.135C355,245.348,355.851,246.479,355.315,247.309Zm1.186,3.322c.111-1.139-.5-1.558-.949-2.136.351-1.055.918.285,1.661.237.081-1.188-.9-1.311-.712-2.611C358.979,246.735,358.529,249.83,356.5,250.631Zm.237-6.644c1.077-.282,1.422.882,2.135.237-.155-.872-.875-1.182-1.424-1.661.162-.708.945-.8,1.9-.712.274-.367-.948-1.256-1.186-1.9.126-.811,1.143-.363,1.661-.237.345-.593-1.375-1.148-.949-2.611h1.186c-.107,1.215.916,1.3.95,2.373-.044.667-.413,1.011-1.187.949.211.5.723.7.712,1.424-1.831,1.377-.242,3.881-1.662,5.22C359.073,245.132,356.586,245.879,356.738,243.987Zm4.509,7.831c-1.038,1.431-2.116-.989-2.373-1.9C360.056,249.22,359.713,252.08,361.247,251.818Zm-2.136,2.136c1.339.8.862,3.408.949,5.457C358.824,258.512,359.21,255.991,359.111,253.953Zm2.611,15.187c.094-.886-1.483-.1-1.661-.712-.661-2.279.407-4.727.712-7.593.245-2.3-.614-4.846-.237-6.644.429-2.048,2.681-2.34,2.847-4.034.967,1.342,2.582,8.633,2.373,10.915-.3,3.226-3.7,7.395-4.271,10.916-1.06.46-2.558,1.447-3.322.237.478-.471.413-1.486.712-2.136C360.237,270.188,361.284,269.969,361.722,269.14Zm9.254-38.916a5.576,5.576,0,0,1-2.611-1.186c.073-1.193-.274-2.805.475-3.322.383-.067.409.224.712.237C367.788,228.237,371.093,228.984,370.976,230.224Zm-.949-9.729a1.712,1.712,0,0,1,2.61,1.661c-.9.636-2.94.673-3.085-.712.449-.421,1.568-.173,2.373-.237C371.9,220.014,369.747,221.481,370.027,220.5Zm9.728.949a2.547,2.547,0,0,1-3.085.949c-.441-1.609,1.512-3.152,2.373-1.9a1.758,1.758,0,0,0-1.9.949C377.63,221.892,378.847,220.687,379.755,221.445Zm-2.847,2.135c.641.355-.411.99-.712,1.186.334,1,1.725.129,1.9-.475.51.835-1.4,1.278-2.373,1.424,1.014.532,2.592-.407,3.084-1.186.733.981-.973,1.549-2.135,1.424.523.66,1.691-.033,2.373,0-.561.877-1.973,1.023-3.085.712,1.889,1.528,3.509-.134,4.983-.949-.827.978.294,4.533-2.136,4.034-.024-1.29,1.419-1.112,1.187-2.611-2.781,1.976-5.257-1.2-8.306-1.186.738-.567,1.889.475,3.085.237-.468-.263-1.108-.591,0-.712a5.871,5.871,0,0,0-2.135-.949c.677,1.041-.218-.124-.475-.475C373.053,224.254,376.184,225.559,376.908,223.58Zm8.542,8.543c-.237,1.266-.17,2.836-1.661,2.847a7.928,7.928,0,0,1,.238-4.746c.526-.131.337.453.711.475.237,1.185-.736,1.161-.711,2.135C384.422,233.441,384.664,231.908,385.45,232.123Zm0,4.983c.644.647.591-.614,1.424-.475a4.435,4.435,0,0,1-1.186,2.136c-.893-.372-.608-1.924-1.424-2.373a2.39,2.39,0,0,1,1.9-1.661C386.26,235.859,385.353,235.98,385.45,237.105Zm2.848-5.932a2.2,2.2,0,0,1-1.9,1.9C386.3,231.789,387.232,230.533,388.3,231.173Zm1.424,14a7.365,7.365,0,0,1,.949-2.847C391.862,242.983,390.726,245.157,389.722,245.173Zm2.373-.712a1.35,1.35,0,0,1-.949,2.136C390.484,245.7,391.792,245.139,392.094,244.462Zm-2.136,2.847c.276-.039.422.053.475.238-.253,1.17-.594,2.253-1.9,2.373A7.977,7.977,0,0,1,389.959,247.309Zm-.949,7.119c1.338,3.889.519,9.735.711,14C386.9,265.45,389.2,259.053,389.01,254.428Zm-.475-8.305c.992.439-.331,1.819-.712,2.373C387.119,247.7,387.909,246.377,388.535,246.123Zm.712-4.983a2.4,2.4,0,0,1-.949,3.085A3.536,3.536,0,0,1,389.247,241.14Zm-1.661,10.915a1.544,1.544,0,0,1,.237-1.186C388.53,250.89,388.458,252.284,387.586,252.055Zm-.949-1.661c-.561-.348-.269-1.832.711-1.424C387.477,249.811,386.509,249.553,386.638,250.394Zm-2.848-2.135v-.475c.2.043.224-.093.238-.237h.475c-.044.2.092.224.237.237v.475c-.2-.044-.224.092-.237.237h-.475C384.071,248.294,383.934,248.272,383.789,248.259Zm4.034,27.288c.774.334.875,1.34,1.424,1.9-1.288.866-2.924,2.842-1.424,4.508.933-.781.055-1.929.475-3.085,1.043-.222,1.36-1.171,2.847-.949a41.55,41.55,0,0,1-2.61,9.254c-.955-.036.26-1.5,0-2.373-.362-1.22-1.911-1.253-2.372-2.373.615-1.515-.559-2.239,0-4.034-.027-.606-.8-.47-1.425-.474-.33-1.015-.595-2.095-1.423-2.611.029-.524,1.006-.1,1.423-.237a8.8,8.8,0,0,1,.475,1.661A3.433,3.433,0,0,0,387.823,275.547Zm-.949-4.746c.782.137.34.9.237,1.424C386.329,272.088,386.772,271.328,386.874,270.8Zm-3.085,8.068a5.345,5.345,0,0,0,1.424.475c-.35,1.537.747,1.627.475,3.085-.565.385-1.365.534-1.9.949C383.372,282.332,384.527,280.33,383.789,278.869Zm3.322,5.458c.861.614.086,3.515-1.661,3.085C386.126,286.506,386.984,285.781,387.112,284.327Zm-10.441-4.983c.379.175-.054,1.161.712.95-.391.875-1.3,1.229-1.186,2.61-.328.755-.235-.839-.238-1.186-.322.074-.2.594-.237.949-.414.009-.732-2.109-1.9-2.135a3.63,3.63,0,0,0,1.66-1.661c1.751,1.525,2.59-2.363,3.56-3.8a14.529,14.529,0,0,0-2.373,3.559c-.294.027.737-2.53.712-3.8-.554.711-.6,1.935-1.186,2.61-.293,2.878-.256-2.651-.238-3.8-.5.932-.144,3.962-.712,4.034.012-1.119-.766-1.449-.712-2.611-.539.943.373,2.468.475,3.559-.777-1.28-1.627-2.486-2.372-3.8a15.138,15.138,0,0,0,1.424,3.321c.837,1.959-.353-.221-1.424-1.186-.676-.609-1.467-.889-1.9-1.424.322.459,4.515,5.011,2.847,3.322a29.237,29.237,0,0,1-3.559-1.661c.355.3,4.022,3.1,4.271,2.848-.38.38-3.379-1.55-4.746-1.187a12.442,12.442,0,0,0,3.56,1.187,15.863,15.863,0,0,1-4.509.475,13.918,13.918,0,0,1,2.136-5.221,10.857,10.857,0,0,1,7.356-1.661c-.23,1.149.687.549,1.186.475a2.006,2.006,0,0,0,1.661,1.423c.335.4-.384,1.37.949,1.186-1.132,1.24-3.146,1.6-4.508,2.61.055-.072,2.127-2.108,2.847-3.085C378.747,276.991,377.847,278.3,376.67,279.343Zm-3.084,2.136c-1.092.728-2.143,1.5-3.322,2.136.954.079,2.58-1.213,3.8-1.661-.32.19-2.163,2.873-3.559,3.559-.352-1.12-.394-1.728-1.187-1.423.03-1.406-.488-2.021-.711-3.085,1.347-.551,3.716-.082,5.458-.237-.9.292-3.35,1.077-4.983,1.424C370.194,282.511,372.214,281.693,373.586,281.479Zm-6.644-11.865c.688-.339,1.486-.569,1.661-1.423-1.494-4.044-1.139-9.934-1.9-14.712.912-1.806,3.571-.448,3.8,1.186.747-.044.3-1.278,1.186-1.186,1.956,1.174.7,6.261.475,8.3-1.2-.932-.237-4.033-1.423-4.983-.865,2.938.567,7.218,1.423,9.966-1.62.2-2.867.772-3.085,2.373,1.214.265.953-.946,1.9-.949.357,1.224,1.421,1.743,1.424,3.322a1.871,1.871,0,0,1-1.9-1.424c-.607.027-.471.8-.474,1.424-1.3-.192-1.423.792-2.611.712C367.932,270.99,367.355,270.5,366.942,269.614Zm-.475-.474c-.336,1.616.348,1.587,0,3.322-.856-.326-.06-1.6-1.424-.949C365.608,270.812,365.311,269.249,366.467,269.14Zm-2.847,1.9a.913.913,0,0,1,1.424-.949A1.674,1.674,0,0,1,363.62,271.038Zm1.424-2.61c1.01-1.838.835-4.86,1.424-7.119.842,1.531.457,4.288.712,6.408C366.623,268.076,365.642,268.853,365.044,268.428Zm1.186-23.255a1.344,1.344,0,0,1-1.186,1.661A1.344,1.344,0,0,1,366.23,245.173Zm-1.424-.712a1.545,1.545,0,0,1,.237-1.186h.712C365.817,244.049,365.473,244.417,364.806,244.462Zm9.254-14c1.879.58,2.522-.83,4.27-1.661a5.356,5.356,0,0,0-.474,2.847c-1.885.513-4.143-.754-5.457.475a2.856,2.856,0,0,1-.712-3.322C373.044,228.737,373.062,230.153,374.061,230.462Zm-.949-1.9c1.067-.653,3.087-.721,3.321.712C375.8,230.566,373.087,230.028,373.112,228.563Zm9.966,12.576a1.282,1.282,0,0,1-1.186-1.424C382.881,239.579,383.626,240.473,383.077,241.14Zm.475,2.373c-.771-.179-1.505-.394-1.425-1.424Q383.608,242.033,383.552,243.513Zm-.475,2.61c-.879-.15-1.324-.733-1.186-1.9C382.741,244.355,383.586,245.382,383.077,246.123Zm-1.186.949c.82-.188,1,.264,1.424.475C383.212,248.353,381.581,248.078,381.891,247.072Zm.711,2.611c-.488.492-1.2,0-1.186-.712.2.043.224-.093.237-.237A.89.89,0,0,1,382.6,249.682Zm-3.322-6.17c.878.784,1.937,1.386,2.136,2.847C379.981,246.134,379.41,245.044,379.28,243.513Zm1.9,4.746a2.36,2.36,0,0,1-1.9-2.136A2.824,2.824,0,0,1,381.179,248.259Zm-2.135-6.882c.891-.183,2.04,1.226,2.373,2.373A3.086,3.086,0,0,1,379.044,241.377Zm1.424,9.492a2.49,2.49,0,0,1-1.424-2.373c-.455.269-1.461.913-1.424-.237C379.7,248,380.408,249.108,380.467,250.869Zm-10.2-11.153c-2.117-.431.372-3.662,1.66-2.848C371.625,238.071,370.224,238.173,370.264,239.716Zm4.034-2.611c.075,1.231-1.613,2.623-2.848,3.322A2.655,2.655,0,0,1,374.3,237.105Zm-4.508,8.543c-1.49-.34-.422-3.124.949-2.847C371.587,244.075,370.083,244.756,369.79,245.648Zm1.424.475c.075,1.341-.753,1.779-1.9,1.9C369.468,246.988,370.246,245.582,371.213,246.123Zm.237,2.136a3.964,3.964,0,0,1-2.136,2.135A2.5,2.5,0,0,1,371.45,248.259Zm0,1.661c1.015.68-.453,2.4-1.423,2.61C369.82,250.978,370.734,250.547,371.45,249.92Zm-.237-8.305c1.422-.057,1.473-2.564,3.085-1.661.042,1.782-2.1,1.381-2.136,3.085C371.38,243.03,371.255,242.364,371.213,241.614Zm3.321.712c.53,2.1,3.811,2.647,3.8,4.508a13.2,13.2,0,0,1-4.27-3.322c-.6.985-1.028,2.136-2.136,2.61C371.944,244.006,372.772,242.7,374.535,242.326Zm3.56,2.61c-.7-1.439-2.727-1.545-3.085-3.322a8.138,8.138,0,0,1,2.373.712c.027-1.531-1.824-1.181-2.61-1.9-.172-.725.243-.865.237-1.424,2.17-.114,2.173,1.94,3.56,2.61C377.067,242.757,379.144,243.907,378.094,244.936Zm-2.848,1.186c.842.345,1.9.479,1.9,1.661C376.145,247.6,375.066,247.49,375.247,246.123Zm0,1.9a7.089,7.089,0,0,1-2.135,2.61C372.616,249.427,373.943,248.2,375.247,248.021Zm-1.423-1.9c1.185.651-.6,2.177-1.661,2.136C372.165,247,373.262,246.827,373.823,246.123Zm.237,4.746c1.18.627-1.1,1.052-.712,2.373C371.187,252.983,373.3,251.1,374.061,250.869Zm-.712,4.746a5.95,5.95,0,0,1,2.373.237,47.568,47.568,0,0,1,1.424,16.136,5.243,5.243,0,0,1-3.322,0C371.983,267.222,373.762,261.62,373.349,255.614Zm3.321-3.085c-1.348-.232-1.4,1.8-2.372,1.186a1.133,1.133,0,0,1,1.186-1.186c-.137-.417.287-1.395-.237-1.424C376,250.371,377.013,251.385,376.67,252.53Zm-.949-4.034c1.084-.169,1.853.821,1.186,1.661C375.966,250.15,375.933,249.233,375.722,248.5Zm2.609,2.136q.166,1.114-.949.949A.674.674,0,1,1,378.331,250.631Zm.238-10.678c-.7.568-2.707-1.529-3.085-2.848A2.862,2.862,0,0,1,378.569,239.953Zm-2.847-5.932a1.771,1.771,0,0,1,1.9.712,1.594,1.594,0,0,1-1.9,1.186A1.852,1.852,0,0,1,375.722,234.021Zm4.033-.949c-.062,1.282-.326,2.363-1.186,2.847A1.618,1.618,0,0,1,379.755,233.072Zm-5.22,2.61c-1.008.514-2.265-.51-2.373-1.661-.465.326-.128,1.454-.475,1.9-1.384-.276-1.72-1.6-2.373-2.61C371.029,233.21,373.789,234.031,374.535,235.682Zm-4.033,4.746c-.179.849-.55,1.508-1.424,1.661C368.788,240.82,369.548,239.706,370.5,240.428Zm-3.56-2.848c.2-.987,1.515-1.855,2.372-1.424C369.039,237.067,367.916,238.129,366.942,237.58Zm.475,11.39c.142-1.352-1.023-3.608.712-3.8C367.473,246.083,369.195,248.5,367.416,248.97Zm.949,1.186c-.28.353-.206,1.06-.949.949Q367.251,249.991,368.365,250.157Zm-1.66-5.933c-.048-1.313.258-2.273,1.66-2.135C368.032,243.021,367.727,243.981,366.705,244.224Zm0,5.458c.062.773-.282,1.142-.95,1.186C365.693,250.095,366.037,249.727,366.705,249.682Zm-1.187-1.661a1.332,1.332,0,0,1,.949-.237C366.711,248.752,365.36,249.05,365.518,248.021Zm1.424-6.882c-1.1-.5.725-2.674,1.661-1.9A4.543,4.543,0,0,1,366.942,241.14Zm-1.186-5.221a1.282,1.282,0,0,1,1.424-1.186C367.316,235.723,366.422,236.468,365.755,235.919Zm-.237,16.848c1.063.432.77,2.973.474,4.034C365.016,256.274,365.742,254.046,365.518,252.767Zm14,9.729c-1.247,2.175,1.3,4.292.475,7.593.5.789.688-.712,1.423-.475a5.117,5.117,0,0,1-.238,2.136,6.877,6.877,0,0,0-2.61-.237,8.892,8.892,0,0,0,.475-5.221c-.767-.212-.334.774-.712.949-.8-3.256,1.242-5.718.712-9.492a19.851,19.851,0,0,0-.949,2.848c-1.674-.728-1.347-4.792-.712-6.407,1.072.272.745,1.944,1.423,2.61-.162-2.442.3-4.879,3.085-4.983a7.434,7.434,0,0,1,.711,3.085c.588-.362-.049-1.948.95-1.9.06,3.54-.078,6.883-1.187,9.254-.82-1.239.082-3.952.237-5.695-2.419,3.2-.693,7.388-.475,11.627a30.5,30.5,0,0,1,1.9,3.322C381.322,270.647,380.227,266.146,379.518,262.5Zm4.509,6.882c.85.1,1.142.756,1.186,1.66C384.467,270.836,384.23,270.124,384.027,269.378Zm0-.712c-1.523-.559-1.219-3.308-.95-4.983C384.618,264,384.427,267.185,384.027,268.666Zm.711-28.238c-.949.158-.953-.628-.949-1.424C384.738,238.846,384.743,239.632,384.738,240.428Zm.475,1.661c-.488.492-1.2,0-1.186-.712C384.706,241.33,385.322,241.347,385.213,242.089ZM384.5,246.6c-.418-.057-.541-.408-.475-.949h.711C384.839,246.145,384.576,246.277,384.5,246.6Zm-.475-3.322c.2.043.224-.093.237-.237a.891.891,0,0,1,.949.949C384.725,244.479,384.009,243.986,384.027,243.275Zm1.661,4.034c.934.47.064,3,0,4.034C384.072,250.384,385.37,248.835,385.688,247.309Zm.475-6.881c.873-.218.431,1.252.237,1.424C385.749,241.846,385.837,240.732,386.163,240.428Zm.237,6.169c.551-1.129.24-2.314.475-3.322C388.159,243.585,387.732,246.724,386.4,246.6Zm.712-4.271a2.948,2.948,0,0,1,.475-2.135C388.573,240.315,387.948,242.488,387.112,242.326Zm-.712-2.61a1.281,1.281,0,0,1,1.186-1.424A1.281,1.281,0,0,1,386.4,239.716Zm-2.373-1.661a1.284,1.284,0,0,1-1.425-1.187C383.518,236.822,383.967,237.245,384.027,238.055Zm-1.661-2.848c.375.02.905-.114.95.237C383.574,236.278,381.859,236.08,382.365,235.207Zm.237,3.8c-.817-.035-1.427-1.064-.949-1.661C382.471,237.379,383.08,238.407,382.6,239Zm-.949,2.61a2.1,2.1,0,0,1-2.135-2.135A2.493,2.493,0,0,1,381.654,241.614Zm-.712-4.509c-.744-.164-.309-.633-.237-1.186.383-.066.408.224.712.237C381.589,236.8,380.945,236.634,380.942,237.105Zm.237,2.136c-1.2-.537-2.736-.744-2.847-2.373C379.518,237.421,380.883,237.8,381.179,239.242Zm-9.017-14c.83-.511.881.384,2.136,0C374.031,226.2,372.683,225.453,372.162,225.241Zm1.9,1.424a3.624,3.624,0,0,1-2.611,1.186c-.557-.233-.562-1.019-.949-1.423C371.071,226.183,372.617,226.994,374.061,226.665Zm-4.034,5.221a9.939,9.939,0,0,1-1.9,2.135c-.874-.945-1.523-2.116-2.373-3.085.518-.233,1.582.607,2.373-.237C368.143,231.712,369.32,231.563,370.027,231.885Zm-2.848-1.424c-.955-.23-1.337-1.037-1.9-1.661.057-.972.991-1.066,1.9-1.187.162.708.288,1.453.949,1.661C367.888,229.748,367.718,230.289,367.179,230.462Zm-.949,7.593c-.333.458-.13,1.452-1.186,1.186Q364.962,237.974,366.23,238.055Zm-.712,2.373c.634.422,0,1.565-.712,1.424C364.6,240.933,365.386,241.007,365.518,240.428Zm-.949,9.017c-.5-.19-.926-.977-.475-1.424C364.894,248.249,365.25,248.929,364.569,249.445Zm-6.881,20.407c1.019.05.282,1.867-.475,1.661C357.175,270.763,357.205,270.081,357.688,269.852Zm-1.187,2.136c.742-.108.758.507.712,1.186C356.472,273.282,356.454,272.667,356.5,271.988Zm-2.847,5.458c1.108,1.23.879,5.077.237,6.644C352.749,282.593,353.222,279.337,353.654,277.446Zm.711,8.779c-1.208-1.2,1.074-2.616,1.661-3.559C356.687,284.122,353.963,284.237,354.365,286.225Zm5.7,5.457a.507.507,0,1,1,0-.949Zm1.187-.237c-.2-.043-.224.093-.237.237h-.475c.044-.2-.093-.223-.238-.237v-.475c.2.044.224-.092.238-.237h.475c-.044.2.092.224.237.237Zm.237.237v-.949A.507.507,0,1,1,361.484,291.682Zm.949,0v-.949h.711C363.212,291.354,363.058,291.754,362.434,291.682Zm1.661,0c-.792.238-.778-.329-.712-.949h.712Zm.949,0h-.712c-.1-.5.163-.628.237-.949C365.282,290.494,364.989,291.262,365.044,291.682Zm.949,0c-.625.072-.779-.329-.712-.949h.712Zm.949,0a.507.507,0,1,1,0-.949Zm-5.22-8.779c-.37.343-.469.955-1.424.712-.989-.04-.914-1.143-1.661-1.424-.7,1.676-2.809,1.936-2.61,4.508-1.7-.869.015-2.683.949-3.084-.781-2.217,1.089-4.718-.474-6.882-.433.56.326,1.588-.237,2.373-1.559-.616-.53-3.939.475-4.271,3.129.034,2.443,3.885,4.271,5.22,1.793-.757,2.759.494,4.746.237.453-2.475,1.136-4.717,3.322-5.457.2,1.785-2.732,2.486-2.136,5.457a7.085,7.085,0,0,0-2.135,1.424c-.253,2.944,3.91,2.732,3.085,5.457C367.193,284.391,363.576,284.529,361.722,282.9Zm6.169.475a3.985,3.985,0,0,1-2.373-1.186c.3-.89,1.444-.929,1.9-1.661C367.889,281.164,367.538,282.622,367.891,283.378Zm-.475,8.3c.021-.647-.4-.478,0-.949A.507.507,0,1,1,367.416,291.682Zm.949,0v-.949h.712C369.144,291.354,368.99,291.754,368.365,291.682Zm1.424,0c-.418-.057-.541-.408-.476-.949h.713C370.127,291.229,369.864,291.362,369.79,291.682Zm1.186,0c-.625.072-.779-.329-.712-.949h.712Zm1.186-.237c-.2-.043-.223.093-.237.237h-.475c.044-.2-.093-.223-.237-.237v-.475c.2.044.224-.092.237-.237h.475c-.044.2.093.224.237.237Zm.238.237v-.949h.712C373.178,291.354,373.024,291.754,372.4,291.682Zm.949,0v-.949h.712C374.127,291.354,373.974,291.754,373.349,291.682Zm1.66,0c-.792.238-.778-.329-.711-.949h.711Zm-1.186-4.034c-.256-.053-.424-.806-.712-.949-.335-.166-.971.114-1.187,0-.372-.2-.239-1.316-1.186-.712.931-1.441,2.532-2.214,3.559-3.559-.03.767-1.222,2.413-1.661,3.559a14.228,14.228,0,0,0,2.135-3.085c.32.073-.664,2.765-.712,4.034a12.426,12.426,0,0,0,1.186-3.559,12.345,12.345,0,0,1,.475,4.508C375.095,286.913,374.575,287.8,373.823,287.649Zm2.135,4.034c-.625.072-.779-.329-.712-.949h.712Zm1.187-.237c-.2-.043-.224.093-.237.237h-.475c.044-.2-.092-.223-.237-.237v-.475c.2.044.224-.092.237-.237h.475c-.044.2.092.224.237.237Zm.949.237c-.792.238-.778-.329-.712-.949h.712Zm.949,0c-.626.072-.779-.329-.712-.949h.712Zm.95,0c-.626.072-.78-.329-.713-.949h.713Zm-.238-4.983c-1.047.171-1.581-.023-2.135.949-.787-.25-1.03-.7-1.424.237a8.164,8.164,0,0,1,0-4.271,12.453,12.453,0,0,1,1.186,3.559c.235-1.418-.491-2.826-.475-3.8.019-1.2.4.477.712.949.453.677,1.253,1.368,1.424,2.135.051-.846-1.051-2.583-1.661-3.559a7.5,7.5,0,0,1,3.322,3.085C380.26,285.522,379.561,285.85,379.755,286.7Zm1.187,4.983a.507.507,0,1,1,0-.949Zm.949,0a.507.507,0,1,1,0-.949Zm.949,0a.507.507,0,1,1,0-.949Zm0-9.254a1.119,1.119,0,0,0-.712-.237c1.112.746-.725.683,0,1.9-.69-.341-.266-.182-.237.474-.981-.062-.954.282-.712.949-.918-.1-4.911-5.2-3.321-3.321a29.167,29.167,0,0,1,3.559,1.661,11.7,11.7,0,0,0-3.8-2.373c.849-.21,2.641.676,4.034.712A11.053,11.053,0,0,0,378.094,281c.048-.513,3.049-.109,4.271-.237a14.919,14.919,0,0,0-4.034-.475,11.674,11.674,0,0,1,2.847-.95c-.708-.616-1.876.327-2.847.237a15.53,15.53,0,0,1,3.8-2.373c-.454.836.234,1.144.712,1.661-.578,1.018-.229.78.237,1.661-.186.239-.149.592-.712.949C382.369,281.951,383.013,281.781,382.84,282.428Zm.475,9.254v-.949A.507.507,0,1,1,383.315,291.682Zm.949,0v-.949h.712C385.043,291.354,384.889,291.754,384.264,291.682Zm.949,0v-.949h.712C385.992,291.354,385.839,291.754,385.213,291.682Zm.95,0v-.949h.711C386.942,291.354,386.788,291.754,386.163,291.682Zm.949,0v-.949h.712C387.89,291.354,387.737,291.754,387.112,291.682Zm1.66,0c-.792.238-.777-.329-.711-.949h.711Zm.95,0c-.792.238-.778-.329-.711-.949h.711Zm.949,0c-.792.238-.777-.329-.712-.949h.712Zm2.847-4.508c.386-.764.114-1.285,0-2.136C394.3,285.176,394.573,287.183,393.518,287.174Zm-1.66,0c-1.014-1.141,1.593-2.643,1.424-4.508-1.105.239-1.064,1.625-2.848,1.186.633-.713.49-2.2.949-3.085,1.024-.731,2.071.2,2.847.475C394.8,283.856,392.6,285.148,391.858,287.174Zm3.085-15.186c-.927-.022-.94-.959-1.424-1.424a1.046,1.046,0,0,0-.475.95c-1-.185-1.265-1.108-1.424-2.135C393.274,269.841,394.694,269.776,394.942,271.988Zm-3.085.475c-1.213.184-.6-1.452-1.424-1.661-.522.269-.016,1.566-.712,1.661-4.5-4.422-6.545-11.163-5.458-21.119,6.034,2.334,2.4,12.021,4.747,17.56C390.256,269.667,392.245,270.843,391.858,272.462Zm-2.847-19.221a2.016,2.016,0,0,1,.237-1.424c.5-.1.628.163.949.237Q390.278,253.323,389.01,253.241Zm1.423-2.373a8.336,8.336,0,0,1,.949-2.373c.384-.067.409.224.712.237C391.66,249.563,391.524,250.693,390.433,250.869Zm3.559-5.221c-.081,1.185-1.319,1.212-.949,2.848C391.474,248.076,392.969,245.719,393.993,245.648Zm-2.135-7.593c.345,1.461-1.623,1.577-.95,2.61,1.151.045.746-1.469,1.9-1.424C393.354,244.254,386.589,238.973,391.858,238.055Zm.237-3.8c.459.552-.083,2.121-.237,2.847C390.825,236.627,391.558,234.656,392.094,234.258Zm-1.9.475c-.347-1.579,1.3-3.095,2.611-3.8C392.557,232.822,391.218,233.619,390.2,234.733Zm7.593-1.9c.326.751.052.793,0,1.661-1.223-.28-1.859-1.147-2.847-1.661C395.684,232.108,396.779,233.043,397.79,232.834Zm-4.271-1.9c.88.168,1.018-.405,1.9-.237.068,1.255-1.118,1.255-1.424,2.135.466,1.391,3.583,1.27,2.848,3.085-1.946.049-2.006-1.791-3.559-2.135A9.9,9.9,0,0,1,393.518,230.936Zm-.237,7.593c-.723-.019-.556-1.551-.238-1.9C393.767,236.65,393.6,238.182,393.281,238.529Zm-.949-12.576c.211.105.424.209.475.475-.283,1.14-1.939.908-1.661,2.61C388.932,228.32,391.452,226.465,392.332,225.953Zm-3.085,4.272c.6-.4,1.06-.931,1.9-.475.758-.27.609-1.447,1.187-1.9.482.229.512.912.475,1.661-.63,1.031-2.7.619-2.373,2.61C389.555,231.973,389.111,231.389,389.247,230.224Zm0,2.61c.388,1.575-1.257,1.116-1.424,2.136.177.535,1.331.093,1.9.237,0,1.026-1.119.938-1.424,1.661.579.64,1.547-.337,2.61,0-.446.9-1.551,1.137-1.661,2.373-1.765-.45-1.121-3.308-2.61-4.034C387.1,234.011,387.72,232.969,389.247,232.834Zm-.475-4.034c-.3,1.442-2.222,1.257-3.084,2.135A2.106,2.106,0,0,1,388.772,228.8Zm-.474-4.509c-.419,1.558-1.844,2.112-3.56,2.373C384.861,224.81,387.009,224.981,388.3,224.292Zm-.237,2.136c.49,1.277-2.637,2.928-3.559,1.423C385.846,227.535,386.525,226.553,388.061,226.428Zm-4.034,2.373c.625-.071.779.329.711.949C384.113,229.821,383.96,229.421,384.027,228.8Zm-6.407-13.526c.518.035.509.6.475,1.187,1.408-.016,1.751-1.1,3.559-.712-.489,1.878,1.561,3.328.237,4.509a9.07,9.07,0,0,0-3.085-2.373c-.075-.945,1.1-.642,1.187-1.424-1.049.067-1.905,1.3-3.085.474C376.667,215.9,377.4,215.845,377.62,215.275Zm-4.746.475c.606.027.471.795.475,1.424C372.491,217.4,373.018,216.238,372.874,215.749Zm-7.119,4.746c.526-.13.338.453.712.475.534-.1-.036-1.3.712-1.186-1.36-1.641-.032-1.849-.949-3.8a4.294,4.294,0,0,1,4.271,1.186c.66.107-.187-1.293.475-1.186,2.586,1.825-2.43,1.493-3.322,2.136,1.29,1.559,4.7.708,4.508-1.9.383.152.139,2.025,1.661,1.424.725-.439-.274-1.127,0-1.9.9-.2.84,1.063.474,1.424.24.393,1.008.258,1.424.475.788-.429-.722-1.779.711-1.661.191.823-.353.913-.237,1.661,2.173.6,4.112,1.425,4.982,3.322,3.58-.416,2.1,4.23,2.611,6.881-.453.1-.429.678-1.187.475.2,2.793.1,4.48-2.135,5.695a9.016,9.016,0,0,1-.237-2.61c2.129-.074,1.1-2.126,1.186-3.56.12-2.037,1.769-4.71.237-6.407-.051,1.151.033,3.181-1.9,3.085.174-.647-.471-.478-.475-.949-.125-1.152,1.009-1.048.95-2.135-.1-2.4-4.147-2.4-4.508-.237-.2,1.154.679,1.219.475,2.373a2.412,2.412,0,0,1-2.847,0c1.951-3.953-4.013-4.729-4.983-1.661.463.644,1.715.5,2.136,1.186.5.855-1.163,1.281-1.424,2.136a4.293,4.293,0,0,1-1.9-2.61c-.606.027-.471.795-.474,1.424C364.881,224.126,364.643,221.351,365.755,220.5Zm-.712,3.559c.673.355.749,1.307,2.135.949.166,1.5-1.15,2.556-1.9,2.373C365.514,226.027,364.368,225.09,365.044,224.055Zm-3.559-1.186c-.886.095-1.392-.189-1.424-.949C360.915,221.855,361.7,221.86,361.484,222.868Zm2.847,1.9c-.3.98-.69-.09-1.187-.237.274,1.546,1.225,2.414,1.424,4.034-1.146.118-1.207-.85-1.187-1.9-.59-.573-2.79-1.225-3.322-2.61C361.278,222.767,363.528,223.652,364.332,224.766Zm.237,6.17c-.9-.055-1.28-.618-1.187-1.661C364.4,229.208,364.431,230.124,364.569,230.936Zm-1.661-1.9c-.954-1.024-2.676-1.279-2.847-3.085C361.945,225.926,363.407,227.459,362.908,229.038Zm-2.61-.712c1.068.561,2.887,1.479,2.373,2.847-1.015-.408-1.633-1.214-2.61-1.661A1.548,1.548,0,0,1,360.3,228.326Zm3.56,3.322c1.368.89,1.622,4.108-.237,4.746-.2-.513-.614-.809-.475-1.661a1.546,1.546,0,0,1,1.187-.237,2.562,2.562,0,0,0-1.187-1.424c-.929.179-.5,1.717-.949,2.373-1.389-1.049-3.789-2.134-2.848-4.746C361.4,230.5,361.812,232.541,363.857,231.648Zm-4.983-10.441c.757.813,1.085,3.26.237,4.271-.258,1.317.876,2.721-.712,2.848.246.608.855,1.635.237,2.373a20.393,20.393,0,0,0-2.373-1.661,1.161,1.161,0,0,1,1.186-.475c-.01-.78-1.014-.568-.949-1.424a4.869,4.869,0,0,0,1.424-.711c.076-.946.013-1.753-.475-2.136-.561.7.212,2.743-1.424,2.373.577-2.476-1.688-2.108-2.61-3.085C354.087,221.686,356.845,221,358.874,221.207Zm-3.322,4.508c-.336.693-1.3.754-1.9,1.187.39.4,1.287.294,1.661.711.737,3.819.392,8.4-3.085,8.78-.948-1.84,1.833-1.519,2.135-2.847a1.9,1.9,0,0,0-.949-2.136c-.632.7.881.7.474,1.9a2.7,2.7,0,0,1-1.423-2.61c.5-.53,1.741-.316,2.135-.949-1.225-.266-2.384-.809-3.56-.475,1.217,1.173-.568,3.046-1.9,2.373,1.118-1.334,1.3-3.6,2.847-4.509.1-.811-.711-.713-.95-1.186-.76.11-.836.9-1.661.95C350.229,224.613,353.743,223.912,355.552,225.716Zm-5.221,2.136a4.314,4.314,0,0,1-2.61,3.322C347.148,229.578,348.912,227.432,350.331,227.851Z" transform="translate(-344.863 -213.377)"/>
      <path id="Path_2489" data-name="Path 2489" d="M387.032,224.2c-.612.424-1.5,1.815-1.186,2.373A12.179,12.179,0,0,0,387.032,224.2Z" transform="translate(-363.53 -217.788)"/>
      <path id="Path_2490" data-name="Path 2490" d="M395.024,231.994c.257.351,1.152,1.516.475.475a5.871,5.871,0,0,1,2.136.949c-1.108.12-.468.449,0,.712-1.2.238-2.347-.8-3.085-.237,3.049-.013,5.525,3.162,8.306,1.186.232,1.5-1.212,1.32-1.187,2.611,2.43.5,1.309-3.056,2.136-4.034-1.475.815-3.094,2.477-4.983.949,1.112.311,2.524.165,3.085-.712-.682-.033-1.851.66-2.373,0,1.162.126,2.869-.442,2.136-1.424-.492.779-2.07,1.718-3.084,1.186.968-.146,2.882-.588,2.373-1.424-.174.6-1.565,1.478-1.9.475.3-.2,1.353-.831.712-1.186C399.045,233.5,395.914,232.193,395.024,231.994Z" transform="translate(-367.725 -221.315)" fill="#fff"/>
      <path id="Path_2491" data-name="Path 2491" d="M397.6,234.555c-1.255.384-1.306-.511-2.136,0C395.981,234.767,397.328,235.514,397.6,234.555Z" transform="translate(-368.16 -222.691)" fill="#fff"/>
      <path id="Path_2492" data-name="Path 2492" d="M401.922,330.546c-1.333.184-.614-.784-.949-1.186a2.006,2.006,0,0,1-1.661-1.423c-.5.074-1.416.674-1.186-.475a10.857,10.857,0,0,0-7.356,1.661,13.918,13.918,0,0,0-2.136,5.221,15.86,15.86,0,0,0,4.509-.475,12.443,12.443,0,0,1-3.56-1.187c1.367-.363,4.366,1.567,4.746,1.187-.249.249-3.916-2.552-4.271-2.848a29.259,29.259,0,0,0,3.559,1.661c1.667,1.689-2.526-2.863-2.847-3.322.431.535,1.222.815,1.9,1.424,1.071.965,2.261,3.145,1.424,1.186a15.143,15.143,0,0,1-1.424-3.321c.746,1.31,1.6,2.516,2.372,3.8-.1-1.091-1.013-2.616-.475-3.559-.054,1.161.723,1.492.712,2.611.568-.072.216-3.1.712-4.034-.018,1.146-.055,6.675.238,3.8.591-.675.632-1.9,1.186-2.61.025,1.266-1.006,3.823-.712,3.8a14.528,14.528,0,0,1,2.373-3.559c-.97,1.433-1.809,5.322-3.56,3.8a3.629,3.629,0,0,1-1.66,1.661c1.167.026,1.484,2.145,1.9,2.135.04-.355-.085-.876.237-.949,0,.348-.09,1.942.238,1.186-.115-1.381.8-1.735,1.186-2.61-.767.212-.334-.774-.712-.95,1.177-1.038,2.077-2.352,3.56-3.085-.72.977-2.793,3.013-2.847,3.085C398.776,332.145,400.79,331.786,401.922,330.546Zm-6.407,4.509a.727.727,0,1,1,.949-.949A.891.891,0,0,1,395.515,335.054Z" transform="translate(-364.895 -267.189)" fill="#fff"/>
      <path id="Path_2493" data-name="Path 2493" d="M411.261,337.676c-.466-.881-.815-.643-.237-1.661-.479-.517-1.167-.825-.712-1.661a15.528,15.528,0,0,0-3.8,2.373c.971.09,2.139-.853,2.847-.237a11.673,11.673,0,0,0-2.847.95,14.92,14.92,0,0,1,4.034.475c-1.222.128-4.223-.275-4.271.237a11.054,11.054,0,0,1,3.559,1.186c-1.393-.036-3.185-.921-4.034-.712A11.7,11.7,0,0,1,409.6,341a29.163,29.163,0,0,0-3.559-1.661c-1.59-1.88,2.4,3.218,3.321,3.321-.242-.667-.269-1.011.712-.949-.029-.656-.453-.815.237-.474-.725-1.216,1.112-1.153,0-1.9a1.119,1.119,0,0,1,.712.237c.173-.648-.471-.478-.475-.949C411.112,338.269,411.075,337.916,411.261,337.676Z" transform="translate(-373.047 -270.523)" fill="#fff"/>
      <path id="Path_2494" data-name="Path 2494" d="M404.117,345.275c.61.976,1.712,2.713,1.661,3.559-.17-.767-.971-1.458-1.424-2.135-.316-.472-.693-2.144-.712-.949-.016.97.709,2.379.475,3.8a12.452,12.452,0,0,0-1.186-3.559,8.165,8.165,0,0,0,0,4.271c.394-.94.637-.488,1.424-.237.554-.973,1.088-.778,2.135-.949-.194-.849.505-1.178.95-.712A7.5,7.5,0,0,0,404.117,345.275Z" transform="translate(-371.597 -275.748)" fill="#fff"/>
      <path id="Path_2495" data-name="Path 2495" d="M372.638,336.686a7.086,7.086,0,0,1,2.136-1.424c-.6-2.971,2.337-3.672,2.135-5.457-2.186.741-2.869,2.983-3.322,5.457-1.986.257-2.952-.994-4.746-.237-1.829-1.336-1.143-5.186-4.272-5.22-1,.332-2.033,3.655-.475,4.271.563-.784-.2-1.813.237-2.373,1.563,2.164-.307,4.665.474,6.882-.934.4-2.644,2.215-.949,3.084-.2-2.572,1.913-2.833,2.61-4.508.747.281.672,1.385,1.661,1.424.955.243,1.054-.37,1.424-.712,1.854,1.626,5.472,1.488,6.169,4.271C376.547,339.418,372.384,339.63,372.638,336.686Zm-8.543-5.933c2.579-.576,2.668,3.325,4.034,4.746C365.065,336.561,365.894,331.742,364.1,330.754Z" transform="translate(-352.695 -268.346)" fill="#fff"/>
      <path id="Path_2496" data-name="Path 2496" d="M397.713,349.822a12.344,12.344,0,0,0-.475-4.508,12.429,12.429,0,0,1-1.186,3.559c.047-1.269,1.031-3.961.712-4.034a14.224,14.224,0,0,1-2.136,3.085c.439-1.146,1.631-2.792,1.661-3.559-1.027,1.345-2.628,2.118-3.559,3.559.946-.6.813.514,1.186.712.216.114.852-.166,1.187,0,.287.143.456.9.712.949C396.566,349.74,397.086,348.85,397.713,349.822Z" transform="translate(-366.855 -275.313)" fill="#fff"/>
      <path id="Path_2497" data-name="Path 2497" d="M388.634,341.381c.224,1.064.742,1.678.711,3.085.794-.305.835.3,1.187,1.423,1.4-.685,3.24-3.368,3.559-3.559-1.217.448-2.843,1.74-3.8,1.661,1.179-.641,2.23-1.409,3.322-2.136-1.373.213-3.392,1.032-4.509.712,1.634-.346,4.085-1.132,4.983-1.424C392.35,341.3,389.981,340.83,388.634,341.381Z" transform="translate(-364.895 -273.753)" fill="#fff"/>
      <path id="Path_2498" data-name="Path 2498" d="M388.317,306.1c0-.629-.132-1.4.475-1.424a1.871,1.871,0,0,0,1.9,1.424c0-1.579-1.067-2.1-1.424-3.322-.945,0-.684,1.215-1.9.949.218-1.6,1.465-2.174,3.085-2.373-.856-2.748-2.288-7.029-1.423-9.966,1.186.95.22,4.051,1.423,4.983.222-2.044,1.481-7.131-.475-8.3-.882-.092-.439,1.143-1.186,1.186-.226-1.635-2.884-2.993-3.8-1.186.759,4.778.4,10.669,1.9,14.712-.175.854-.973,1.084-1.661,1.423.413.881.99,1.376.475,2.611C386.894,306.891,387.017,305.906,388.317,306.1Z" transform="translate(-363.153 -247.962)" fill="#fff"/>
    </g>
  </g>
</svg>
